<svg xmlns:xlink="http://www.w3.org/1999/xlink" xmlns="http://www.w3.org/2000/svg" width="56" height="24" fill="none"><path fill="#FFFFFF" fill-rule="evenodd" d="M16.756 5.348c3.523-4.93 10.988-6.106 15.972-2.75-.835 1.228-1.614 2.497-2.421 3.745-2.438-1.752-5.96-1.8-8.378.013-2.893 1.961-3.866 6.203-1.953 9.167 2.022 3.497 7.187 4.588 10.347 1.974 2.7-1.974 2.684-5.579 3.584-8.491 1.081-3.67 4.06-6.812 7.788-7.839 3.358-.938 7.16-.491 10.06 1.503-.818 1.236-1.593 2.497-2.388 3.746-1.727-1.237-4.016-1.728-6.078-1.144-3.075.773-5.319 3.891-5.1 7.045.072 3.505 3.143 6.667 6.694 6.663 2.91.16 5.456-2.007 6.312-4.693-2.252-.028-4.5.012-6.748-.02.763-1.45 1.732-2.776 2.6-4.161 2.945.012 5.895-.037 8.841.032.557 4.06-.98 8.415-4.31 10.9-4.863 3.88-12.712 2.562-16.17-2.558-1.849 2.53-4.702 4.35-7.837 4.705-3.72.564-7.615-.846-10.166-3.593-1.222 1.86-3.317 3.162-5.577 3.19-3.938.093-7.89.137-11.828-.016.036-7.198.024-14.392.008-21.59 3.543-.013 7.086-.029 10.63.003 2.607.053 5.254 1.64 6.118 4.17ZM4.717 5.244c.053 1.547.033 3.093.029 4.644 1.824-.008 3.648.032 5.472-.008 1.255.04 2.405-1.124 2.3-2.38.044-1.23-1.085-2.337-2.308-2.297a92.496 92.496 0 0 0-5.493.04Zm.045 8.612c-.024 1.655-.02 3.307 0 4.962 2.082-.016 4.165.025 6.243-.004 1.239.069 2.502-.81 2.688-2.062.31-1.398-.884-2.796-2.284-2.852-2.212-.08-4.432.016-6.647-.044Z" clip-rule="evenodd"></path></svg>