<svg xmlns:xlink="http://www.w3.org/1999/xlink" width="44" height="45" viewBox="0 0 44 45" fill="none" xmlns="http://www.w3.org/2000/svg"><path d="M39.9206 11.1012C39.8212 13.0771 37.9417 13.8195 36.484 12.482C35.8211 11.8738 35.0276 11.1251 34.0835 10.2057C31.9512 12.1462 28.644 15.1717 24.7011 18.8329C23.6657 19.7944 21.984 19.6869 21.0794 18.6014L21.0787 18.6006C19.3035 16.4767 17.5151 14.3614 15.6644 12.3028C13.5018 13.8906 9.62 16.9165 5.76777 20.7687C4.79146 21.745 3.20854 21.745 2.23223 20.7687C1.25592 19.7924 1.25592 18.2095 2.23223 17.2332C6.01146 13.454 10.158 9.909 14.6051 6.92628L14.612 6.92164C14.6137 6.92053 14.6132 6.92083 14.6132 6.92083C15.6048 6.2598 16.9251 6.39053 17.7678 7.23319C19.7037 9.1691 21.453 11.2985 23.2236 13.3853C26.2338 10.6013 28.7696 8.28173 30.5479 6.6628C29.7409 5.83011 29.0724 5.12012 28.5199 4.51795C27.182 3.05994 27.9248 1.17996 29.9011 1.0805C32.4229 0.953591 35.011 0.878911 37.5021 1.34464C38.6238 1.55435 39.4466 2.37725 39.6562 3.49896C40.1219 5.99042 40.0475 8.57897 39.9206 11.1012Z" fill="#FFCB47"></path><path d="M3.21891 44.9686C1.54583 44.9261 0.27856 43.9198 0.14179 42.2518C0.0598699 41.2527 0 39.8796 0 38C0 36.1204 0.0598699 34.7473 0.14179 33.7482C0.27856 32.0802 1.54583 31.0739 3.21891 31.0314C3.9509 31.0128 4.86612 31 6 31C7.13388 31 8.0491 31.0128 8.7811 31.0314C10.4542 31.0739 11.7214 32.0802 11.8582 33.7482C11.9401 34.7473 12 36.1204 12 38C12 39.8796 11.9401 41.2527 11.8582 42.2518C11.7214 43.9198 10.4542 44.9261 8.7811 44.9686C8.0491 44.9872 7.13388 45 6 45C4.86612 45 3.9509 44.9872 3.21891 44.9686Z" fill="#FFE194"></path><path d="M35.691 44.9585C33.7418 44.8816 32.375 43.5113 32.2486 41.5646C32.1176 39.5461 32 36.2674 32 31C32 25.7326 32.1176 22.4539 32.2486 20.4354C32.375 18.4887 33.7418 17.1184 35.691 17.0415C36.3342 17.0161 37.0979 17 38 17C38.9021 17 39.6658 17.0161 40.309 17.0415C42.2582 17.1184 43.625 18.4887 43.7514 20.4354C43.8824 22.4539 44 25.7326 44 31C44 36.2674 43.8824 39.5461 43.7514 41.5646C43.625 43.5113 42.2582 44.8816 40.309 44.9585C39.6658 44.9839 38.9021 45 38 45C37.0979 45 36.3342 44.9839 35.691 44.9585Z" fill="#FFE194"></path><path d="M19.5532 44.9663C17.6854 44.9095 16.324 43.6837 16.1898 41.8199C16.0844 40.355 16 38.1872 16 35C16 31.8128 16.0844 29.645 16.1898 28.1801C16.324 26.3163 17.6854 25.0905 19.5532 25.0337C20.2243 25.0133 21.0326 25 22 25C22.9674 25 23.7757 25.0133 24.4468 25.0337C26.3146 25.0905 27.676 26.3163 27.8102 28.1801C27.9156 29.645 28 31.8128 28 35C28 38.1872 27.9156 40.355 27.8102 41.8199C27.676 43.6837 26.3146 44.9095 24.4468 44.9663C23.7757 44.9867 22.9674 45 22 45C21.0326 45 20.2243 44.9867 19.5532 44.9663Z" fill="#FFE194"></path></svg>