<svg xmlns:xlink="http://www.w3.org/1999/xlink" xmlns="http://www.w3.org/2000/svg" width="103" height="32" fill="none"><g clip-path="url(#business-insider-logo_svg__a)" fill="none"><path fill="#FFFFFF" fill-rule="evenodd" d="M7.982 32h2.396V19.2H7.982V32Zm8.783-.192h2.146v-8.076L27.944 32V19.392h-2.14v7.938l-9.039-8.13v12.608Zm16.078-3.1c1.168.91 2.57 1.436 4.073 1.436 1.464 0 2.491-.504 2.491-1.617 0-.97-.655-1.35-1.802-1.775l-1.857-.645c-1.712-.608-3.014-1.496-3.014-3.537 0-2.183 1.971-3.37 4.328-3.37 1.444 0 2.76.363 3.788 1.006v2.165c-1.069-.79-2.239-1.334-3.742-1.334-1.294 0-2.261.483-2.261 1.49 0 .91.607 1.274 1.676 1.64l2.069.726c2.005.705 2.925 1.798 2.925 3.596 0 2.262-1.99 3.511-4.601 3.511-1.716 0-3.175-.48-4.073-1.086v-2.206ZM47.107 32h2.395V19.2h-2.395V32Zm13.631-1.937c2.7 0 4.143-1.732 4.143-4.466 0-2.754-1.444-4.48-4.143-4.48h-2.67v8.946h2.67ZM55.888 19.2h4.93c3.795 0 6.249 2.5 6.249 6.397 0 3.9-2.454 6.403-6.249 6.403h-4.93V19.2Zm23.157 0v1.917h-5.797v3.08h5.199v1.895h-5.2v3.971h5.798V32H71.06V19.2h7.985Zm8.502 5.796h2.377c1.407 0 2.2-.772 2.2-1.959s-.793-1.96-2.2-1.96h-2.377v3.919Zm0 1.81V32h-2.115V19.2h4.532c2.584 0 4.256 1.331 4.256 3.837 0 2.143-.928 3.374-2.905 3.69L95.812 32h-2.406l-4.354-5.193h-1.504v-.001ZM7.145 6.59c.937-.343 1.667-1.372 1.667-2.787 0-2.358-1.667-3.58-4.334-3.58h-4.48v13.163h4.896c2.667 0 4.334-1.308 4.334-3.773 0-1.394-.875-2.616-2.083-3.023Zm-5.043-.836V2.153h2.356c1.48 0 2.271.536 2.271 1.779 0 1.243-.792 1.822-2.271 1.822H2.102Zm0 1.844h2.75c1.46 0 2.251.728 2.251 1.929 0 1.179-.792 1.93-2.25 1.93h-2.75v-3.86l-.001.001ZM19.003 13.6c3.063 0 5.126-1.844 5.126-5.445V.223h-2.167v7.674c0 2.53-1.042 3.71-2.959 3.71s-2.958-1.18-2.958-3.71V.223h-2.167v7.91c0 3.623 2.083 5.467 5.125 5.467Zm10.228-1.158c.896.644 2.355 1.158 4.063 1.158 2.605 0 4.584-1.33 4.584-3.73 0-1.908-.916-3.066-2.917-3.816l-2.062-.772c-1.063-.385-1.667-.771-1.667-1.736 0-1.072.958-1.586 2.25-1.586 1.5 0 2.667.578 3.73 1.415V1.08C36.191.395 34.878.009 33.44.009c-2.354 0-4.313 1.265-4.313 3.58 0 2.165 1.292 3.108 3 3.751l1.855.686c1.146.45 1.792.858 1.792 1.887 0 1.179-1.021 1.715-2.48 1.715-1.5 0-2.896-.558-4.063-1.522v2.336ZM45.621.223h-2.166v13.162h2.166V.223Zm6.182 13.146h2.088V4.806l8.788 8.767V.203h-2.082V8.62L51.803 0v13.369ZM76.22.226v1.971h-5.626v3.168h5.045v1.949h-5.045v4.083h5.626v1.992h-7.75V.226h7.75Zm5.045 12.207c.896.644 2.354 1.158 4.063 1.158 2.604 0 4.584-1.329 4.584-3.73 0-1.908-.917-3.065-2.917-3.816l-2.063-.771c-1.063-.386-1.667-.772-1.667-1.737 0-1.072.958-1.586 2.25-1.586 1.5 0 2.667.579 3.73 1.415V1.072C88.224.386 86.911 0 85.473 0c-2.354 0-4.313 1.265-4.313 3.58 0 2.165 1.292 3.108 3 3.751l1.855.686c1.146.45 1.792.858 1.792 1.887 0 1.179-1.02 1.715-2.48 1.715-1.5 0-2.896-.557-4.062-1.522v2.336Zm13.086 0c.896.644 2.355 1.158 4.063 1.158 2.605 0 4.584-1.329 4.584-3.73 0-1.908-.917-3.065-2.917-3.816l-2.063-.771c-1.062-.386-1.667-.772-1.667-1.737 0-1.072.959-1.586 2.25-1.586 1.5 0 2.668.579 3.73 1.415V1.072C101.311.386 99.998 0 98.56 0c-2.355 0-4.313 1.265-4.313 3.58 0 2.165 1.292 3.108 3 3.751l1.855.686c1.146.45 1.792.858 1.792 1.887 0 1.179-1.021 1.715-2.48 1.715-1.5 0-2.896-.557-4.063-1.522v2.336Z" clip-rule="evenodd"></path></g><defs><clipPath id="business-insider-logo_svg__a"><path fill="#fff" d="M-.002 0h103v32h-103z"></path></clipPath></defs></svg>