<svg xmlns:xlink="http://www.w3.org/1999/xlink" xmlns="http://www.w3.org/2000/svg" width="81" height="22" fill="none"><g clip-path="url(#forbes-logo_svg__a)" fill="none"><path fill="#FFFFFF" d="M7.798 2.37h1.775a5.977 5.977 0 0 1 3.19.404 5.65 5.65 0 0 1 2.553 3.409c.265.747.265.747.903.482h.498V.751H.016v1.042H.7a1.992 1.992 0 0 1 1.556.732c.638 1.027.747 2.179.747 8.172 0 6.366-.14 7.922-.747 8.716a1.682 1.682 0 0 1-1.292.685c-.95.17-.95.155-.95.576a.623.623 0 0 0 0 .435h10.538a.981.981 0 0 0 0-.887 5.37 5.37 0 0 0-.778-.155 5.2 5.2 0 0 1-.84-.172 2.802 2.802 0 0 1-1.137-2.537c-.155-1.027-.233-2.91-.233-4.467v-1.23h.622c.776-.023 1.551.06 2.304.25a2.88 2.88 0 0 1 1.339 2.054l.14.483h.95V7.552h-.873l-.14.67a2.77 2.77 0 0 1-1.416 2.054c-.368.11-.756.136-1.136.078h-1.79v-1.68c0-1.744.093-5.417.155-5.993l.078-.312Zm72.843 12.342a5.65 5.65 0 0 0-3.222-2.444 7.783 7.783 0 0 1-2.786-1.556 1.556 1.556 0 0 1-.45-1.385c0-.491.196-.961.544-1.308a1.884 1.884 0 0 1 1.868-.513 3.922 3.922 0 0 1 2.755 2.926c.249.7.28.7.731.513l.28-.108V6.96l-.202-.093a12.032 12.032 0 0 0-4.779-.654 5.603 5.603 0 0 0-3.735 1.556 4.295 4.295 0 0 0-1.354 3.362 3.689 3.689 0 0 0 1.058 2.553 6.317 6.317 0 0 0 2.646 1.556c2.413.95 3.113 1.557 3.113 2.662a2.054 2.054 0 0 1-1.556 2.039c-.544.12-1.107.12-1.65 0a4.795 4.795 0 0 1-2.91-3.284l-.203-.498h-.28c-.134.01-.266.041-.39.093h-.155v4.42h.265c1.051.35 2.136.59 3.237.717h1.557a6.102 6.102 0 0 0 2.007-.187 4.84 4.84 0 0 0 3.674-3.113c.185-.444.28-.92.28-1.401a3.875 3.875 0 0 0-.343-1.977ZM65.98 6.665a7.175 7.175 0 0 0-5.867.14 6.834 6.834 0 0 0-3.565 4.25 8.312 8.312 0 0 0-.42 3.112 8.518 8.518 0 0 0 .14 1.713 6.911 6.911 0 0 0 5.588 5.572c.904.114 1.82.114 2.724 0a7.47 7.47 0 0 0 2.646-1.012 4.67 4.67 0 0 0 1.65-1.556.778.778 0 0 0-.374-.483 2.015 2.015 0 0 0-.498.265 4.45 4.45 0 0 1-2.615.731 4.156 4.156 0 0 1-3.315-1.307 3.72 3.72 0 0 1-.794-1.059 7.237 7.237 0 0 1-.763-3.113v-.607h8.623v-.31a7.658 7.658 0 0 0 0-.935 6.227 6.227 0 0 0-3.16-5.4Zm-4.342 5.386h-1.09v-.919c.358-2.35 1.245-3.75 2.335-3.75 1.09 0 1.557 1.384 1.759 3.921v.716h-.934l-2.07.032Zm-22.382-5.9a3.269 3.269 0 0 0-1.557.327 5.215 5.215 0 0 0-2.412 2.413l-.203.374V6.152h-.078c-.186 0-5.945 1.151-6.132 1.23-.187.077-.125.093-.125.373s0 .327.125.342l.607.125a1.12 1.12 0 0 1 .872.451c.389.514.467 1.416.467 5.261.076 1.73.004 3.465-.218 5.183a1.276 1.276 0 0 1-1.074 1.012l-.53.109h-.202v.436a.622.622 0 0 0 0 .45h8.7v-.45c.031-.15.031-.303 0-.452a8.7 8.7 0 0 1-1.556-.202 1.557 1.557 0 0 1-.825-1.557c-.124-.902-.186-3.549-.155-5.572s0-2.148.171-2.288c.52-.4 1.165-.603 1.821-.576a4.063 4.063 0 0 1 1.774.452c.191.105.395.184.608.233 0 0 1.556-3.767 1.556-3.938a1.836 1.836 0 0 0-1.634-.622Zm-10.49 6.538a6.99 6.99 0 0 0-3.207-5.541 8.094 8.094 0 0 0-7.285-.203 7.036 7.036 0 0 0-3.408 4.047 10.399 10.399 0 0 0 0 5.977 6.521 6.521 0 0 0 1.665 2.817 6.319 6.319 0 0 0 3.596 1.744c.87.072 1.744.072 2.614 0 .32-.05.638-.117.95-.203a6.927 6.927 0 0 0 4.965-5.525c.155-1.03.192-2.075.11-3.113Zm-6.476 7.782c-1.556.467-2.724-1.043-3.113-4.218a29.168 29.168 0 0 1 0-4.996c.312-2.553 1.105-3.845 2.335-3.845a1.557 1.557 0 0 1 1.307.576c1.043 1.043 1.557 3.113 1.557 6.226.13 1.762-.148 3.53-.81 5.168a2.365 2.365 0 0 1-1.276 1.011v.078ZM50.306 6.463a5.183 5.183 0 0 0-1.323 0c-.843 0-1.677.18-2.444.53l-.483.201V3.817c.085-1.14.085-2.285 0-3.424-.186 0-6.132 1.136-6.225 1.183a.483.483 0 0 0 0 .358c0 .326 0 .31.7.466.197.045.386.118.56.218.304.286.506.663.576 1.074.177 1.185.235 2.384.172 3.58v13.666l.42.094c.622.14 2.381.435 2.957.498 1.15.091 2.305.091 3.455 0a7.051 7.051 0 0 0 5.822-4.374c.286-.764.484-1.557.591-2.366a14.007 14.007 0 0 0-.109-3.284 5.992 5.992 0 0 0-4.67-5.043Zm-4.078 13.744c0-.203-.156-7.02-.125-9.744V8.331l.452-.11c.304-.043.613-.043.918 0 .337-.034.675.043.965.219a4.67 4.67 0 0 1 2.008 3.548 17.119 17.119 0 0 1 0 3.409 7.487 7.487 0 0 1-1.806 4.467c-.306.29-.69.485-1.105.56a2.772 2.772 0 0 1-.95 0c-.295 0-.295-.093-.295-.217h-.062Z"></path></g><defs><clipPath id="forbes-logo_svg__a"><path fill="#fff" d="M0 .393h80.999v21.215H0z"></path></clipPath></defs></svg>