<svg xmlns:xlink="http://www.w3.org/1999/xlink" width="36" height="40" viewBox="0 0 36 40" fill="none" xmlns="http://www.w3.org/2000/svg"><path d="M31.5029 3.49087C33.2287 3.66409 34.5821 4.80641 34.9206 6.5075C35.4217 9.0254 36 13.6351 36 21.5C36 29.3649 35.4216 33.9746 34.9206 36.4925C34.5821 38.1936 33.2287 39.3359 31.5029 39.5091C29.1547 39.7448 24.9968 40 18 40C11.0032 40 6.8453 39.7448 4.4971 39.5091C2.77133 39.3359 1.4179 38.1936 1.07939 36.4925C0.57835 33.9746 0 29.3649 0 21.5C0 13.6351 0.57835 9.0254 1.07939 6.5075C1.4179 4.80642 2.77133 3.66409 4.4971 3.49087C6.8453 3.25519 11.0032 3 18 3C24.9968 3 29.1547 3.25519 31.5029 3.49087Z" fill="#9EDCC7"></path><path fill-rule="evenodd" clip-rule="evenodd" d="M26.9648 14.4537C27.9836 15.0418 28.3154 16.3882 27.6664 17.3855C24.1298 22.8201 20.9522 26.384 19.152 28.2208C18.2448 29.1464 16.8676 29.2675 15.8471 28.4758C14.2474 27.2349 11.775 25.0325 9.38103 21.7585C8.79973 20.9636 8.89873 19.8568 9.57443 19.1446L10.1177 18.5718C10.8788 17.7696 12.1223 17.7213 12.899 18.5076C15.2321 20.8694 17.2485 23.4232 17.2485 23.4232C17.2485 23.4232 20.0826 19.2282 24.1794 14.6577C24.8104 13.9537 25.8321 13.7999 26.6446 14.2689L26.9648 14.4537Z" fill="#306D59"></path><path d="M22.6591 0.0455499C24.3979 0.0816599 25.711 1.61167 25.519 3.34025L25.2977 5.3313C25.1289 6.8506 23.8447 8 22.3161 8H13.6863C12.1577 8 10.8735 6.8506 10.7047 5.3313L10.4835 3.34025C10.2914 1.61167 11.6045 0.0816599 13.3434 0.0455499C14.7348 0.0166499 16.2824 0 18.0012 0C19.7201 0 21.2676 0.0166499 22.6591 0.0455499Z" fill="#306D59"></path></svg>