<svg xmlns:xlink="http://www.w3.org/1999/xlink" xmlns="http://www.w3.org/2000/svg" width="96" height="38" fill="none"><path fill="#FFFFFF" fill-rule="evenodd" d="M88.388 17.72h-3.73V4.002h3.513v1.536c.437-.923 1.534-1.74 2.96-1.844 2.415-.103 4.059 1.23 4.059 4.095v9.931h-3.838V7.38c0-1.228 0-2.253-.879-2.457-.33-.103-.877 0-1.317.307-.548.513-.768 1.126-.768 2.15v10.34Zm-64.843-6.86c0 2.56 0 4.607-.44 5.633-.329.51-.659.818-1.427.818-.658 0-1.097-.308-1.316-.82-.548-1.024-.548-3.071-.548-5.63 0-2.457 0-4.606.547-5.631.22-.512.659-.819 1.317-.819.768 0 1.098.307 1.428.819.548 1.023.439 3.174.439 5.632v-.002Zm1.424-5.937c-.878-.717-1.974-1.229-3.291-1.229-1.316 0-2.303.514-3.29 1.23-1.538 1.228-2.525 3.48-2.525 5.936 0 2.56.987 4.71 2.525 5.94.987.715 1.974 1.227 3.29 1.227 1.317 0 2.415-.512 3.293-1.228 1.645-1.229 2.523-3.38 2.523-5.939 0-2.456-.878-4.708-2.523-5.937h-.002Zm38.294 18.019v3.684h-.767c-.44-1.536-1.099-2.866-2.855-2.969-1.096-.1-2.084.514-2.193 1.433-.11.923.219 1.74 2.193 2.767 2.525 1.328 4.5 1.943 4.5 4.708 0 2.968-2.744 4.403-5.048 4.403h-4.39v-5.119h.769c.55 2.66 1.426 4.299 3.512 4.402 1.317 0 2.302-.718 2.302-2.048 0-1.332-.876-2.15-2.96-3.277-2.304-1.33-3.73-2.15-3.73-3.992 0-2.457 1.865-3.992 4.827-3.992h3.84Zm4.827-5.222V7.79c0-2.866-1.645-4.198-4.059-4.095a3.706 3.706 0 0 0-3.073 1.945c-.548-1.433-1.756-2.048-3.512-1.945-1.424.103-2.523.921-2.962 1.844V4.002h-3.4v13.716h3.73V7.382c0-1.024.11-1.639.769-2.15.439-.307.878-.41 1.206-.307.878.204.878 1.229.878 2.457v10.34h3.73V7.277c0-.923.219-1.537.769-2.049.439-.306.878-.41 1.206-.306.878.203.987 1.229.987 2.456v10.34h3.73v.002Zm-38.073 0h3.84V1.135h-3.84V17.72ZM42.963 5.13c.769 1.023.769 3.478.769 5.425 0 2.047.11 4.71-.767 5.834-.33.411-.66.615-1.208.615-.767 0-1.206-.819-1.425-2.15-.11-1.228-.11-2.764-.11-4.402 0-2.763.218-5.836 1.646-5.836.547 0 .767.205 1.097.514h-.002Zm4.5 12.591V1.135h-3.84v3.89c-.329-.716-1.097-1.228-2.194-1.228-2.743 0-4.937 2.662-5.048 6.757-.109 2.765.878 7.372 4.718 7.372 1.536 0 2.414-.82 2.744-1.538v1.332h3.62Zm29.844-8.19-1.208.716c-1.206.717-1.424 1.64-1.535 2.662-.11.82-.11 1.536 0 2.765.11 1.126.878 1.33 1.535 1.126.769-.308 1.208-1.638 1.208-3.071V9.53ZM79.5 4.411c.99.514 1.647 1.33 1.647 3.174V17.72h-3.621v-1.535c-.438 1.126-1.645 1.842-3.292 1.842-1.315 0-3.62-.613-3.62-3.787 0-2.97 2.084-3.583 4.39-4.506 2.084-.818 2.303-.921 2.303-1.74V5.742c0-.922-.548-1.33-1.647-1.33-.437.102-1.206.306-1.206.818-.11.614.658.614.77 1.535.108 1.435-1.1 1.945-2.196 1.844-.769 0-1.647-.41-1.756-1.536-.11-1.843 2.084-3.379 5.157-3.379 1.426 0 2.304.308 3.071.717ZM22.995 28.673l-1.206.718c-1.208.717-1.427 1.638-1.538 2.662-.107.818-.107 1.638 0 2.763 0 1.23.769 1.435 1.427 1.127.878-.307 1.317-1.535 1.317-3.072v-4.198Zm2.195-5.118c.987.614 1.535 1.332 1.535 3.174v10.237h-3.508v-1.535c-.44 1.023-1.645 1.739-3.292 1.739-1.426 0-3.621-.51-3.621-3.684 0-2.969 2.085-3.583 4.279-4.506 2.195-.92 2.413-1.022 2.413-1.74v-2.252c0-1.023-.548-1.432-1.645-1.33-.439 0-1.206.205-1.206.717-.11.717.658.717.767 1.638.11 1.33-1.096 1.842-2.195 1.842-.767-.103-1.645-.512-1.756-1.638-.109-1.74 2.086-3.277 5.157-3.277 1.428 0 2.305.205 3.073.616l-.001-.001Zm26.553 3.482c0-2.866-1.647-4.3-4.06-4.095-1.206.1-2.195.613-2.744 1.33V20.28h-3.732v9.419c0 3.479-2.634 6.755-5.268 6.653-1.864 0-2.303-1.33-2.523-2.763-.328-2.048-.328-4.402-.11-6.963.221-1.637.66-2.969 1.977-2.969.987 0 1.097.615.658 1.024-.44.514-1.097 1.024-.769 2.15.33 1.23 2.414 1.433 3.403.514.767-.82.657-2.152.11-2.97-.66-1.024-1.757-1.433-3.402-1.433-2.086 0-6.035 1.74-6.035 7.267 0 5.939 4.059 6.963 6.363 6.963 2.634 0 4.937-2.15 5.596-3.892v3.686h3.73v-10.34c0-1.022.22-1.637.77-2.15.438-.307.987-.41 1.316-.307.878.206.878 1.23.878 2.457v10.34h3.84v-9.93h.002ZM13.34.828v5.836h-.768c-.658-2.866-2.084-5.018-4.06-5.119-1.316-.102-2.085.613-2.742 1.637-.658 1.23-.988 3.789-.988 6.858 0 2.868.11 5.018.44 6.554.218.717.766 1.842 2.193 1.842.768 0 1.317-.204 1.646-.613.547-.615.658-1.844.658-2.662v-2.765c0-1.024-.328-1.637-.878-1.945-.437-.205-1.097-.205-1.425-.308v-.716h6.143v14.641h-.767c-.33-1.126-.549-1.946-1.098-2.867-.547-.921-1.536-1.945-3.181-1.945-1.756-.103-3.073.92-3.073 2.456 0 2.048 1.317 2.56 3.73 3.79 2.305 1.227 5.268 2.252 5.268 5.834 0 3.48-3.184 5.632-6.803 5.632H1.82v-7.065h.767c.988 5.324 3.401 6.245 5.048 6.245 2.084 0 3.071-1.23 3.071-2.969-.11-2.253-1.756-3.071-4.058-4.197-3.292-1.74-4.828-2.56-4.828-5.426.11-2.458 2.194-3.992 4.498-4.607C1.49 18.436.064 14.342.174 9.94.174 5.538 2.917.83 8.293.83h5.047Z" clip-rule="evenodd"></path></svg>