<svg xmlns:xlink="http://www.w3.org/1999/xlink" xmlns="http://www.w3.org/2000/svg" width="193" height="48" fill="none"><g clip-path="url(#HBS_svg__a)" fill="none"><path fill="#FFFFFF" d="M49.089 4.169h-1.24v39.276h1.24V4.169ZM58.623 10.025h2.828v4.068h4.195v-4.068h2.828v11.281h-2.828V16.54H61.45v4.766h-2.828v-11.28ZM71.62 21.306h3.018l.572-1.78h4.163l.572 1.78h3.019l-4.258-11.28h-2.924l-4.162 11.28Zm4.258-3.877 1.398-4.67h.032l1.398 4.67h-2.828Zm10.263 3.877h2.829V17.24h1.78l2.224 4.067h3.145l-2.573-4.544c1.398-.413 2.32-1.589 2.32-3.05 0-2.543-1.558-3.718-4.1-3.718H86.11v11.312h.031Zm2.797-9.183h2.574c.89 0 1.493.476 1.493 1.525s-.603 1.494-1.493 1.525h-2.574v-3.05Zm13.41 9.183h2.987l3.908-11.28h-2.955l-2.383 8.039h-.032l-2.288-8.04h-2.987l3.75 11.281Zm8.389 0h3.018l.572-1.78h4.163l.572 1.78h3.019l-4.258-11.28h-2.924l-4.162 11.28Zm4.258-3.877 1.398-4.67h.032l1.398 4.67h-2.828Zm10.263 3.877h2.829V17.24h1.779l2.224 4.067h3.146l-2.574-4.544c1.399-.413 2.32-1.589 2.32-3.05 0-2.543-1.557-3.718-4.099-3.718h-5.625v11.312Zm2.797-9.183h2.574c.889 0 1.493.476 1.493 1.525s-.604 1.494-1.493 1.525h-2.574v-3.05Zm10.55 9.183h4.385c3.432 0 5.751-1.62 5.751-5.656 0-4.004-2.319-5.656-5.751-5.656h-4.385v11.312Zm2.828-8.897h1.589c2.129 0 2.891 1.43 2.891 3.273 0 1.81-.762 3.273-2.86 3.273h-1.62v-6.546ZM58.655 34.907h3.686c2.065 0 3.336-.636 3.336-2.32 0-1.208-.89-1.78-2.002-1.875v-.032c1.113-.254 1.716-.794 1.716-1.843 0-1.525-1.112-2.097-2.764-2.097h-3.972v8.167Zm1.938-6.61h1.684c.668 0 1.049.159 1.049.858 0 .604-.413.858-1.049.858h-1.684v-1.716Zm0 3.21h2.034c.762 0 1.017.285 1.017.984 0 .509-.286.954-1.367.954h-1.684v-1.939Zm14.903-4.704h-2.033v5.116c0 .922-.35 1.59-1.398 1.59-1.05 0-1.399-.668-1.399-1.59v-5.116h-2.033v5.275c0 2.225 1.874 3.05 3.431 3.05 1.558 0 3.432-.825 3.432-3.05v-5.275Zm2.543 6.705c1.112 1.208 2.287 1.653 3.654 1.653 1.525 0 3.718-.445 3.718-2.892 0-1.557-1.335-2.066-2.956-2.32l-.762-.127c-.763-.127-1.144-.35-1.144-.762 0-.54.699-.827 1.144-.827.858 0 1.652.382 2.192 1.017l1.526-1.112c-.922-1.017-2.225-1.557-3.591-1.557-1.748 0-3.305.794-3.305 2.765 0 1.207.826 2.002 2.32 2.224l1.684.286c.604.095.921.318.921.73 0 .7-.985.922-1.525.922-.985 0-1.652-.381-2.351-1.017l-1.525 1.017Zm10.295 1.398h2.034v-8.134h-2.034v8.135Zm5.402 0h1.843V29.79h.032l2.987 5.117h2.034v-8.135h-1.843v5.18h-.064l-2.955-5.18h-2.066v8.135h.032Zm16.492 0v-1.588h-4.29V31.41h3.686v-1.589h-3.686V28.33h3.941v-1.59h-5.974v8.136h6.323v.032Zm2.034-1.398c1.112 1.208 2.288 1.653 3.654 1.653 1.525 0 3.718-.445 3.718-2.892 0-1.557-1.335-2.066-2.955-2.32l-.763-.127c-.763-.127-1.144-.35-1.144-.762 0-.54.699-.827 1.144-.827.858 0 1.653.382 2.193 1.017l1.557-1.112c-.922-1.017-2.225-1.557-3.591-1.557-1.748 0-3.305.794-3.305 2.765 0 1.207.826 2.002 2.32 2.224l1.684.286c.604.095.922.318.922.73 0 .7-.985.922-1.526.922-.985 0-1.652-.381-2.351-1.017l-1.557 1.017Zm9.533 0c1.112 1.208 2.288 1.653 3.654 1.653 1.525 0 3.718-.445 3.718-2.892 0-1.557-1.335-2.066-2.955-2.32l-.763-.127c-.763-.127-1.112-.35-1.112-.762 0-.54.699-.827 1.144-.827.858 0 1.652.382 2.192 1.017l1.557-1.112c-.921-1.017-2.224-1.557-3.59-1.557-1.748 0-3.305.794-3.305 2.765 0 1.207.826 2.002 2.32 2.224l1.684.286c.604.095.921.318.921.73 0 .7-.985.922-1.525.922-.953 0-1.652-.381-2.351-1.017l-1.589 1.017Zm13.282 0c1.113 1.208 2.288 1.653 3.655 1.653 1.525 0 3.718-.445 3.718-2.892 0-1.557-1.335-2.066-2.956-2.32l-.762-.127c-.763-.127-1.144-.35-1.144-.762 0-.54.699-.827 1.144-.827.858 0 1.652.382 2.192 1.017l1.526-1.112c-.922-1.017-2.225-1.557-3.591-1.557-1.748 0-3.305.794-3.305 2.765 0 1.207.826 2.002 2.32 2.224l1.684.286c.604.095.921.318.921.73 0 .7-.985.922-1.525.922-.985 0-1.652-.381-2.351-1.017l-1.526 1.017Zm17.287-4.83c-.763-1.334-1.811-2.129-3.4-2.129-2.542 0-3.941 2.002-3.941 4.29 0 2.288 1.526 4.29 4.1 4.29 1.366 0 2.574-.826 3.273-2.066l-1.621-.762c-.318.73-1.112 1.144-1.652 1.144-1.589 0-2.066-1.398-2.066-2.574 0-1.843.89-2.574 2.002-2.574.699 0 1.398.477 1.684 1.207l1.621-.826Zm2.828 6.229h2.034v-3.432h3.018v3.431h2.034v-8.134h-2.034v2.923h-3.018v-2.923h-2.034v8.135Zm14.14.254c2.606 0 4.1-2.002 4.1-4.29 0-2.288-1.526-4.29-4.1-4.29-2.605 0-4.099 2.002-4.099 4.29 0 2.288 1.494 4.29 4.099 4.29Zm0-6.864c1.494 0 2.066 1.303 2.066 2.574 0 1.24-.572 2.574-2.066 2.574-1.588 0-2.065-1.398-2.065-2.574 0-1.843.89-2.574 2.065-2.574Zm10.805 6.864c2.573 0 4.099-2.002 4.099-4.29 0-2.288-1.526-4.29-4.099-4.29-2.574 0-4.1 2.002-4.1 4.29 0 2.288 1.526 4.29 4.1 4.29Zm0-6.864c1.493 0 2.065 1.303 2.065 2.574 0 1.24-.572 2.574-2.065 2.574-1.589 0-2.066-1.398-2.066-2.574 0-1.843.89-2.574 2.066-2.574Zm7.054 6.61h5.211V33.19h-3.177v-6.42h-2.034v8.136Z"></path><path fill="#000" d="M37.682 15.738c0 13.887-7.468 24.69-17.986 31.395C9.21 40.46 1.712 29.656 1.712 15.738h35.971Z"></path><path stroke="#FFFFFF" strokeLinecap="square" strokeWidth="1.296px" d="M26.814 15.738h10.868c0 14.11-7.468 24.786-17.986 31.46C9.21 40.523 1.712 29.847 1.712 15.737h10.613" fill="none"></path><path fill="#FFFFFF" d="M37.68 15.484c0 .382-.031.064-.031.255-.254-.128-.572 0-.89 0-1.176 0-1.938 1.016-1.938 2.097 0 .222.031.572.095.763a1.723 1.723 0 0 0-.794-.191c-1.08 0-1.939.858-1.939 1.938 0 .35.096.7.286.985a1.814 1.814 0 0 0-1.017-.286c-1.239 0-1.938.985-1.938 2.161 0 .35.032.413.19.7-.285-.191-.603-.255-.953-.255-1.08 0-1.938 1.08-1.938 2.16 0 .319.032.414.159.7-.254-.127-.509-.127-.826-.127-1.08 0-1.939.953-1.939 2.033s.858 1.939 1.939 1.939c.286 0 .572-.064.826-.19-.127.253-.159.476-.159.793 0 1.08.858 1.939 1.938 1.939.35 0 .572 0 .858-.127-.222.318-.159.604-.159.953 0 1.08 1.017 1.78 2.098 1.78.159 0 .286-.096.413-.127-1.557 2.32-3.496 4.702-5.53 6.64.382-.349.89-.889.89-1.493 0-1.08-.89-1.97-1.97-1.97-.54 0-.858.032-1.207.35a1.91 1.91 0 0 0 .445-1.24c0-1.08-.858-1.938-1.939-1.938-.476 0-.89.159-1.239.445.222-.318.35-.7.35-1.08 0-.986-.414-1.939-2.098-1.939-.985 0-1.747.922-1.747 1.907 0 .413.127.794.35 1.08a1.91 1.91 0 0 0-1.24-.445c-1.08 0-1.939.858-1.939 1.939 0 .476.16.89.445 1.239-.35-.35-.826-.54-1.366-.54-1.08 0-1.97.89-1.97 1.97 0 .572.286 1.303.667 1.684a39.728 39.728 0 0 1-5.37-6.387c.127.032.381.064.54.064 1.08 0 1.938-.858 1.938-1.939 0-.35-.095-.667-.254-.953a1.8 1.8 0 0 0 .922.222c1.08 0 1.938-.858 1.938-1.938 0-.318-.095-.604-.222-.89.254.127.54.19.826.19 1.08 0 1.938-.857 1.938-1.938 0-1.08-.858-1.938-1.938-1.938-.318 0-.604.095-.858.223.127-.255.222-.54.222-.859 0-1.08-.858-1.938-1.938-1.938-.381 0-.73.127-1.017.286a1.94 1.94 0 0 0 .254-.953c0-1.08-.858-1.939-1.938-1.939-.381 0-.7.096-1.017.287.159-.287.286-.636.286-.986 0-1.08-.858-1.938-1.938-1.938-.318 0-.636.095-.922.254.16-.254.223-.572.223-.89 0-1.08-.858-2.256-1.939-2.256-.318 0-.635-.127-.89 0 0-.508-.031.382-.031-.254h11.058c-.286.54-.477.795-.477 1.271 0 1.08.858 1.939 1.939 1.939.413 0 .762-.127 1.08-.318-.19.286-.286.635-.286 1.017 0 1.08.858 1.938 1.938 1.938.414 0 .827-.127 1.144-.35-.19.318-.317.668-.317 1.05 0 1.08.858 1.938 1.938 1.938s1.938-.859 1.938-1.939c0-.381-.095-.73-.317-1.049.286.16.603.255.953.255 1.08 0 1.938-.858 1.938-1.939 0-.286-.063-.572-.159-.826.318.223.509.223.922.223 1.08 0 1.843-.858 1.843-1.939 0-.476-.254-.699-.508-1.27H37.68v-.033Z"></path><path fill="#000" d="M18.52 27.019c-.128.159-.16.063-.192-.064-.031-.127-.127-.317-.19-.476-.064-.16-.032-.318.095-.318h.381c.223 0 .255.063.16.286a1.058 1.058 0 0 1-.255.572Zm2.287 0c.127.159.159.063.19-.064.032-.127.128-.317.16-.476.063-.16.031-.318-.096-.318h-.35c-.19 0-.222.063-.158.286.063.254.159.413.254.572Zm-1.08 3.686c.19 0 .317-.032.413-.095.095-.064.222-.064.095-.445a2.828 2.828 0 0 1-.222-1.049v-.445c.031-.222.222-.286.222 0 .032.286.159.954.35 1.303.19.35.476.19.54.159.063-.064.286-.254.35-.381.063-.127.095-.223-.064-.413a4.562 4.562 0 0 1-.7-.985c-.158-.318-.031-.445.191-.16.223.318.477.604.731.795.127.095.19.127.286 0 .096-.127.286-.445.254-.763-.063-.317-.222-.38-.35-.413-.222 0-.571 0-.857-.222-.35-.318-.54-.667-.73-1.525-.096-.445-.287-.572-.51-.572-.222 0-.412.127-.508.572-.159.89-.476 1.302-.826 1.62-.254.223-.636.254-.763.254s-.254 0-.317.318c-.064.318.127.636.254.763.095.159.159.095.286 0 .254-.19.508-.477.73-.795.223-.317.35-.159.191.16-.159.317-.476.73-.699.984-.159.16-.127.286-.063.413.063.128.286.318.35.382.063.063.349.222.54-.16.19-.349.317-1.048.349-1.302.032-.254.19-.222.222 0v.445c0 .286-.095.667-.222 1.049-.159.35-.032.38.095.444.064.032.16.064.382.064Zm-8.612-10.74c.095-.16.19-.35.254-.573.064-.222.032-.317-.159-.317h-.38c-.16 0-.16.159-.096.317.063.16.159.35.19.477 0 .16.032.223.191.096Zm2.256 0c.127.127.16.063.191-.064.032-.159.127-.318.159-.477.063-.159.032-.317-.095-.317h-.35c-.19 0-.222.063-.159.317.064.191.159.382.254.54Zm-1.08 3.654c.19 0 .318-.032.413-.096.095-.063.223-.063.095-.444a2.709 2.709 0 0 1-.222-1.049v-.445c.032-.222.19-.286.222 0s.16.953.35 1.303c.19.35.477.19.54.159.064-.064.286-.254.35-.381.063-.128.095-.223-.064-.414a4.56 4.56 0 0 1-.699-.985c-.159-.317-.032-.444.19-.159.223.318.477.604.732.795.127.095.19.127.285 0 .096-.159.287-.445.255-.794-.064-.318-.223-.382-.35-.414-.222 0-.572 0-.858-.222-.35-.318-.54-.667-.73-1.525-.096-.445-.287-.572-.51-.572-.221 0-.412.127-.507.572-.16.89-.477 1.302-.827 1.62-.254.223-.635.255-.762.255s-.255 0-.318.317c-.064.318.127.636.254.795.095.127.19.095.286 0 .254-.191.508-.477.731-.795.222-.317.35-.159.19.16-.158.317-.476.73-.698.984-.16.16-.128.286-.064.413s.286.318.35.382c.063.063.35.222.54-.16.19-.349.318-1.016.35-1.302.031-.254.19-.223.222 0v.445c0 .286-.096.699-.223 1.048-.159.382 0 .382.096.445.063.032.159.064.38.064Zm13.6-3.782c.096-.159.19-.35.255-.572.063-.222.031-.286-.16-.286h-.38c-.16 0-.16.16-.096.318.063.16.159.35.19.477.032.127.064.19.191.063Zm2.288 0c.127.16.16.064.19-.063.033-.127.128-.318.16-.477.063-.159.032-.318-.096-.318h-.35c-.19 0-.222.064-.158.286.032.223.127.413.254.572Zm-1.112 3.655c.19 0 .318-.032.413-.096.095-.063.223-.063.095-.445a2.707 2.707 0 0 1-.222-1.048v-.445c.032-.222.19-.286.222 0s.16.953.35 1.303c.19.35.477.19.54.159.064-.064.286-.255.35-.382.063-.127.095-.222-.064-.413a4.56 4.56 0 0 1-.699-.985c-.159-.317-.032-.445.19-.159.223.318.477.604.732.795.127.095.19.127.286 0 .095-.127.286-.445.254-.795-.064-.317-.223-.381-.35-.413-.222 0-.572 0-.858-.254-.35-.318-.54-.667-.73-1.525-.096-.445-.287-.572-.509-.572-.222 0-.413.127-.508.572-.16.89-.477 1.303-.827 1.62-.254.223-.635.255-.762.223-.127 0-.255 0-.318.318-.064.317.127.635.254.794.096.159.19.095.286 0 .254-.19.509-.477.731-.794.223-.318.35-.16.19.159-.158.317-.476.73-.698.984-.16.16-.127.287-.064.414.064.127.286.317.35.381.063.063.35.222.54-.159.19-.35.318-1.049.35-1.303.031-.254.19-.222.222 0v.445c0 .286-.095.7-.223 1.049-.159.381-.031.381.096.445.095.095.19.127.381.127Zm-15.73 11.026c.096-.159.191-.35.255-.572.063-.222.032-.286-.159-.286h-.381c-.16 0-.16.16-.096.318.064.19.16.35.191.477.032.127.063.19.19.063Zm2.289 0c.127.127.158.064.19-.063s.127-.318.16-.477c.063-.159.03-.318-.096-.318h-.35c-.19 0-.222.064-.159.286.032.223.127.413.255.572Zm-1.113 3.654c.191 0 .318-.031.414-.095.095-.063.222-.063.095-.445a2.828 2.828 0 0 1-.223-1.048v-.445c.032-.223.191-.286.223 0s.159.953.35 1.303c.19.35.476.19.54.127.063-.064.285-.255.35-.382.063-.127.094-.222-.065-.413a4.563 4.563 0 0 1-.699-.985c-.159-.318-.031-.445.191-.159.223.318.477.604.73.795.128.095.192.127.287 0 .095-.127.286-.445.254-.763-.063-.318-.222-.381-.35-.413-.222-.032-.571 0-.857-.254-.35-.318-.54-.667-.731-1.526-.095-.444-.286-.571-.509-.571-.222 0-.413.127-.508.571-.159.89-.477 1.303-.826 1.621-.255.223-.636.254-.763.254s-.254 0-.318.318c-.063.318.127.636.255.763.095.159.19.095.286 0 .254-.19.508-.477.73-.795.223-.317.35-.159.191.16-.159.317-.477.73-.699.984-.159.16-.127.286-.064.413.064.128.286.318.35.382.063.063.35.222.54-.127.19-.35.318-1.049.35-1.303.031-.254.19-.223.222 0v.445c0 .286-.095.699-.222 1.048-.16.382-.032.382.095.445.064.064.19.096.381.096Zm13.251-3.78c.096-.16.19-.35.254-.573.064-.222.032-.286-.19-.286h-.382c-.159 0-.159.159-.095.318s.159.35.19.477c.064.127.096.222.223.063Zm2.288 0c.127.126.159.063.19-.065.032-.158.128-.317.16-.476.063-.159.031-.318-.096-.318h-.35c-.19 0-.222.064-.158.286.063.222.159.413.254.572Zm-1.112 3.653c.19 0 .318-.031.413-.095.095-.064.222-.064.095-.445a2.708 2.708 0 0 1-.222-1.049v-.444c.032-.223.19-.286.222 0s.16.953.35 1.303c.19.349.477.19.54.127.064-.064.286-.255.35-.382.063-.127.095-.222-.064-.413a4.562 4.562 0 0 1-.699-.985c-.159-.318-.032-.445.19-.127.223.318.477.604.732.794.127.096.19.127.285 0 .096-.159.287-.444.255-.794-.064-.318-.223-.381-.35-.413-.222-.032-.572 0-.858-.254-.35-.318-.54-.668-.73-1.526-.096-.444-.287-.572-.51-.572-.221 0-.412.128-.508.572-.158.89-.476 1.303-.826 1.621-.254.254-.635.254-.762.254-.128 0-.255 0-.318.318-.064.318.127.636.254.794.095.127.19.096.286 0 .254-.19.508-.476.73-.794.223-.318.35-.159.192.127-.16.318-.477.731-.7.985-.158.16-.127.286-.063.413s.286.318.35.382c.063.063.35.222.54-.127.19-.35.317-1.05.35-1.303.031-.255.19-.223.222 0v.444c0 .318-.096.7-.223 1.05-.159.38 0 .38.096.444.095.064.19.095.38.095Z"></path><path fill="#FFFFFF" d="M37.681 4.49H1.742v11.216h35.94V4.49Z"></path><path stroke="#FFFFFF" strokeWidth="1.342px" d="M37.681 4.49H1.742v11.216h35.94V4.49Z" fill="none"></path><path fill="#000" d="M8.54 7.763c0-.668.54-1.208 1.208-1.208h2.955V7.7h.477c.222 0 .38.159.38.381a.367.367 0 0 1-.38.382h-.477v2.669h.477c.222 0 .38.19.38.381a.367.367 0 0 1-.38.382h-.477v1.239h-3.59c-.096.222-.319.35-.573.35a.655.655 0 0 1-.572-.35h-3.59v-1.24H3.9a.367.367 0 0 1-.381-.38c0-.223.158-.382.38-.382h.478v-2.67H3.9a.367.367 0 0 1-.381-.38c0-.223.158-.382.38-.382h.478V6.555h2.955c.667 0 1.207.54 1.207 1.208Zm10.9 5.783a.655.655 0 0 0 .572-.35h3.209v-1.239h.477c.222 0 .38-.19.38-.381a.367.367 0 0 0-.38-.382h-.477V8.525h.477a.367.367 0 0 0 .38-.381.367.367 0 0 0-.38-.381h-.477V6.619h-2.574c-.667 0-1.207.54-1.207 1.207 0-.667-.54-1.207-1.208-1.207h-2.955v1.144H14.8a.367.367 0 0 0-.381.381c0 .222.159.381.381.381h.477v2.67H14.8a.367.367 0 0 0-.381.38c0 .223.159.382.381.382h.477v1.24h3.59c.096.222.318.349.573.349Zm10.835-6.101a1.192 1.192 0 0 0-1.144-.89h-3.304V7.7h-.509a.367.367 0 0 0-.381.381c0 .223.159.382.381.382h.477v2.669h-.477a.367.367 0 0 0-.381.381c0 .223.159.382.381.382h.477v1.239h3.94c.096.222.318.35.572.35a.655.655 0 0 0 .572-.35h4.131v-1.24h.477c.222 0 .381-.19.381-.38a.386.386 0 0 0-.381-.382h-.477v-2.67h.477a.367.367 0 0 0 .381-.38.386.386 0 0 0-.381-.382h-.477V6.555h-3.495c-.572 0-1.017.381-1.144.89h-.096Z"></path><path stroke="#FFFFFF" strokeWidth="0.179px" d="M8.54 7.763v4.544m0-4.544c0-.668.54-1.208 1.208-1.208h2.955V7.7h.477c.222 0 .38.159.38.381a.367.367 0 0 1-.38.382h-.477v2.669h.477c.222 0 .38.19.38.381a.367.367 0 0 1-.38.382h-.477v1.239h-3.59c-.096.222-.319.35-.573.35a.655.655 0 0 1-.572-.35h-3.59v-1.24H3.9a.367.367 0 0 1-.381-.38c0-.223.158-.382.38-.382h.478v-2.67H3.9a.367.367 0 0 1-.381-.38c0-.223.158-.382.38-.382h.478V6.555h2.955c.667 0 1.207.54 1.207 1.208Z" fill="none"></path><path stroke="#FFFFFF" strokeWidth="0.179px" d="m12.07 12.688-.667-.604m-2.765.223c.064-.127.254-.223.572-.223h2.193V6.587h.159l.508.508v5.561H9.147m-.7-.35c-.063-.126-.254-.222-.571-.222H5.683V6.587h-.159l-.508.508v5.561h2.923m1.176.54c.032-.095.063-.158.063-.285a.637.637 0 0 0-.635-.636.637.637 0 0 0-.636.636c0 .095.032.19.064.286m-2.924-.509.668-.604m16.841.604-.667-.604m-2.351.223c.063-.127.254-.223.572-.223h1.81V6.587h.16l.508.508v5.561h-2.542m-.604-4.893v4.544m-3.527.381.667-.604m2.765.223c-.064-.127-.254-.223-.572-.223h-2.193V6.587h-.159l-.508.508v5.561h2.923m1.176.54c.032-.095.064-.158.064-.285a.637.637 0 0 0-.636-.636.637.637 0 0 0-.635.636c0 .095.031.19.063.286m15.507-.509-.667-.604m-3.305.223c.064-.127.254-.223.572-.223h2.701V6.587h.159l.508.508v5.561h-3.463m-.668-.35c-.063-.126-.254-.222-.572-.222H27.1V6.587h-.159l-.508.508v5.561h3.273m1.176.54c.031-.095.063-.158.063-.285a.637.637 0 0 0-.635-.636.637.637 0 0 0-.636.636c0 .095.032.19.064.286m-3.273-.509.667-.604m-7.69 1.462a.655.655 0 0 0 .572-.35h3.21v-1.239h.476c.223 0 .381-.19.381-.381a.367.367 0 0 0-.38-.382h-.477V8.525h.476a.367.367 0 0 0 .381-.381.367.367 0 0 0-.38-.381h-.477V6.619H20.65c-.668 0-1.208.54-1.208 1.207 0-.667-.54-1.207-1.207-1.207h-2.956v1.144h-.476a.367.367 0 0 0-.382.381c0 .222.16.381.382.381h.476v2.67h-.476a.367.367 0 0 0-.382.38c0 .223.16.382.382.382h.476v1.24h3.591c.095.222.318.349.572.349Zm10.931-6.101c.127-.509.604-.89 1.144-.89h3.496V7.7h.476c.223 0 .382.159.382.381 0 .223-.191.382-.382.382h-.476v2.669h.476c.223 0 .382.159.382.381 0 .223-.191.382-.382.382h-.476v1.239h-4.131c-.096.222-.318.35-.572.35a.655.655 0 0 1-.572-.35h-3.94v-1.24h-.477a.386.386 0 0 1-.382-.38c0-.223.16-.382.382-.382h.476v-2.67h-.476a.367.367 0 0 1-.382-.38c0-.223.16-.382.382-.382h.476V6.555h3.337c.54 0 1.017.381 1.144.89h.095Z" fill="none"></path><path fill="#FFFFFF" d="M9.845 9.128c0 .128.032.128.159.128s.159 0 .19-.096c.064-.095.255-.318.255 0v.413c0 .318-.223.096-.254 0-.032-.095-.064-.095-.191-.095s-.159 0-.19.127c-.032.413-.032.794 0 .985 0 .095.031.127.126.127h.223c.35 0 .445-.222.508-.445.096-.35.223-.286.223 0v.54c0 .191-.16.096-.255.096H9.274c-.095 0-.127-.095-.063-.127.063-.064.095-.064.095-.286V8.46c0-.222-.032-.222-.095-.286-.064-.063-.064-.159.063-.127h1.303c.095 0 .254-.095.254.095v.54c0 .16-.19.223-.222 0-.064-.222-.064-.476-.413-.476h-.223c-.095 0-.127.032-.127.127a3.295 3.295 0 0 0 0 .794ZM7.938 8.43c.096-.222.128-.222.191-.286.064-.063.064-.159-.032-.159h-.38c-.096 0-.096.096-.064.128.031.063.127.063.095.286l-.445 1.43c-.064.19-.159.222-.222 0l-.286-1.399c-.032-.222-.032-.222.031-.286.064-.063.032-.159-.095-.127h-.508c-.096 0-.096.096-.032.127.095.064.095.064.159.286l.508 2.225c.064.19.095.318.19.318.096 0 .191-.128.223-.318l.667-2.225Zm9.502 2.479h.317c.096 0 .127-.095.064-.159-.064-.064-.127-.064-.127-.286v-.985l.159.032c.063.095.603 1.27.667 1.334.064.096.064.064.064.064h.413c.159 0 .159-.095.127-.127s-.095-.064-.16-.16c-.063-.094-.54-1.016-.571-1.048-.032-.063-.032-.063-.032-.127 0-.032.032-.095.095-.127.255-.095.445-.318.445-.667 0-.445-.254-.7-1.017-.7h-.635c-.127 0-.222.096-.127.16.095.063.095.127.095.222v2.13c0 .221-.063.221-.127.285-.063.064-.032.159.064.127.063.032.19.032.286.032Zm.254-2.51c0-.255.159-.255.318-.223s.381.095.381.572-.35.572-.509.572c-.158 0-.19-.063-.19-.127V8.397Zm3.368.063c0-.222.032-.222.095-.286.064-.063.064-.159-.063-.127h-.509c-.095 0-.127.095-.063.127.064.064.095.064.095.286v2.034c0 .222-.032.222-.095.286-.064.063-.064.159.064.127h.508c.095 0 .127-.095.063-.127-.063-.064-.095-.064-.095-.286V8.46Zm9.533 1.62c-.032-.126-.286-.095-.413-.095-.095 0-.318-.031-.35.064l-.127.413c-.031.223.032.223.096.286.032.064.032.159-.064.127h-.381c-.096 0-.096-.095-.032-.159.064-.063.095-.063.19-.286l.636-2.129v-.254c0-.095.16-.127.286-.159.032 0 .127.127.16.286l.635 2.224c.063.16.063.191.127.255.063.031.063.19-.032.159h-.508c-.096 0-.16-.096-.096-.128.064-.063.064-.063.032-.286l-.159-.317Zm-.667-.444c-.064.159-.032.159.318.159.286 0 .286-.032.254-.19l-.16-.573c-.063-.381-.126-.381-.253-.032l-.16.636Zm-1.494-1.62c-.159 0-.317 0-.572-.033-.35-.031-.35 0-.35.096v.445c0 .095 0 .222.096.222.064 0 .095-.095.159-.222.127-.35.254-.413.35-.413.095 0 .127.063.127.254V10.4c0 .222-.032.222-.096.285-.063.064-.063.16.064.16h.572c.127 0 .127-.096.063-.16-.063-.063-.095-.063-.095-.286V8.367c0-.19.032-.254.127-.254s.223.063.35.413c.032.127.063.222.159.222.063 0 .095-.127.095-.222V8.08c0-.096 0-.127-.35-.096-.35.032-.54.032-.699.032Zm3.21 2.192v.572c0 .095.032.159.095.159.064 0 .064-.064.223-.064.158 0 .317.127.508.127.445 0 .858-.445.858-.89 0-.413-.095-.508-.477-.794-.381-.286-.73-.413-.73-.763 0-.127.063-.444.349-.444.318 0 .381.35.477.603.063.223.222.127.222 0v-.572c0-.095-.095-.159-.127-.095-.032.032-.159.032-.19.032-.096-.096-.223-.096-.414-.096-.413 0-.699.414-.699.7s.095.508.572.826c.477.35.572.445.572.762 0 .191-.064.572-.413.572-.35 0-.477-.317-.54-.572-.127-.317-.286-.35-.286-.063Z"></path></g><defs><clipPath id="HBS_svg__a"><path fill="#fff" d="M.852.009h191.612v47.983H.852z"></path></clipPath></defs></svg>