<svg xmlns:xlink="http://www.w3.org/1999/xlink" xmlns="http://www.w3.org/2000/svg" width="122" height="34" fill="none"><g fill="#FFFFFF" fill-rule="evenodd" clip-path="url(#linkedin_svg__a)" clip-rule="evenodd"><path d="M.75 27.868h13.257v-4.352h-8.46V6.91H.75v20.957ZM20.718 27.868V13.433H15.92v14.435h4.798ZM18.32 11.463c1.673 0 2.715-1.109 2.715-2.495-.031-1.416-1.042-2.493-2.683-2.493-1.641 0-2.714 1.077-2.714 2.493 0 1.386 1.04 2.495 2.651 2.495h.031ZM22.945 27.868h4.798v-8.06c0-.432.031-.863.158-1.171.347-.862 1.136-1.755 2.462-1.755 1.736 0 2.43 1.324 2.43 3.263v7.723h4.798v-8.276c0-4.434-2.367-6.497-5.524-6.497-2.588 0-3.724 1.446-4.356 2.432h.032v-2.093h-4.798c.063 1.354 0 14.434 0 14.434ZM44.36 6.912h-4.797v20.956h4.797v-4.68l1.2-1.51 3.756 6.19h5.902l-6.313-8.96 5.524-6.096h-5.776s-3.945 5.454-4.292 6.1v-12Z" fill="#FFFFFF"></path><path d="M68.047 21.847c.063-.37.157-1.082.157-1.886 0-3.731-1.894-7.52-6.88-7.52-5.335 0-7.797 4.22-7.797 8.046 0 4.733 2.999 7.688 8.238 7.688 2.084 0 4.009-.307 5.587-.954l-.631-3.168c-1.294.429-2.62.643-4.261.643-2.241 0-4.198-.92-4.356-2.88l9.943.03ZM58.073 18.6c.126-1.232.947-3.049 2.998-3.049 2.178 0 2.683 1.94 2.683 3.049h-5.681ZM80.048 6.91v7.255h-.063c-.695-1.015-2.147-1.692-4.072-1.692-3.693 0-6.944 2.955-6.913 8.004 0 4.681 2.936 7.73 6.597 7.73 1.989 0 3.882-.863 4.83-2.526h.094l.19 2.186h4.26a79.977 79.977 0 0 1-.126-4.495V6.911h-4.797Zm0 14.276c0 .37-.032.739-.095 1.047-.284 1.324-1.42 2.247-2.809 2.247-1.989 0-3.283-1.6-3.283-4.126 0-2.37 1.105-4.28 3.314-4.28 1.484 0 2.525 1.017 2.81 2.279.063.277.063.585.063.862v1.971ZM89.67 3.381c0-1.264 1.05-2.29 2.347-2.29h27.071c1.296 0 2.347 1.026 2.347 2.29v27.387c0 1.265-1.051 2.29-2.347 2.29h-27.07c-1.297 0-2.348-1.025-2.348-2.29V3.381Zm9.628 24.47V13.416H94.5V27.85h4.798ZM96.9 11.445c1.673 0 2.715-1.108 2.715-2.494-.031-1.416-1.042-2.494-2.683-2.494-1.641 0-2.714 1.078-2.714 2.494 0 1.386 1.04 2.494 2.651 2.494h.031Zm9.852 16.406h-4.798s.063-13.08 0-14.435h4.798v2.044c.637-.984 1.779-2.383 4.324-2.383 3.156 0 5.523 2.063 5.523 6.497v8.277h-4.797v-7.723c0-1.94-.695-3.264-2.431-3.264-1.325 0-2.115.893-2.461 1.755-.127.308-.158.74-.158 1.17v8.062Zm0-12.391v.05h-.032a1.48 1.48 0 0 1 .032-.05Z" fill="#FFFFFF"></path></g><defs><clipPath id="linkedin_svg__a"><path fill="#fff" d="M0 .343h122v33.313H0z"></path></clipPath></defs></svg>