<svg xmlns:xlink="http://www.w3.org/1999/xlink" xmlns="http://www.w3.org/2000/svg" width="263" height="34" fill="none"><g clip-path="url(#mckinsey_svg__a)" fill="none"><path fill="#FFFFFF" d="M153.744 4.729c-5.908 0-9.85 4.604-9.85 10.928 0 6.048 3.604 9.85 9.339 9.85 3.733 0 6.648-1.842 7.72-3.606l-.539-.624c-1.175 1.59-3.708 2.753-6.301 2.753-4.634 0-7.409-3.877-7.409-9.65 0-5.564 2.7-8.686 7.125-8.686 3.418 0 5.392 1.745 6.358 5.166h.596l-.199-5.904h-.567c-.208.414-.561.596-1.079.596-1.176 0-2.256-.823-5.194-.823ZM7.65 5.212v.596c1.037.209 2.545.47 2.441 2.753l-.624 12.12c-.139 2.59-.872 3.54-2.668 3.747v.596h6.358v-.596c-1.935-.346-2.488-1.02-2.384-3.577l.567-12.177 6.358 16.208h.795L24.71 8.674l.596 12.972c.105 2.006-.444 2.609-1.93 2.782v.596h7.153v-.596c-1.763-.173-2.45-.996-2.555-3.378l-.596-12.404c-.068-1.797.688-2.56 2.243-2.696v-.625h-4.94l-5.846 15.242-5.961-15.355H7.65Zm35.395 0v.596c2.144.172 2.271.618 2.271 5.733v6.84c0 5.531-.23 5.874-2.27 6.047v.596h7.095v-.596c-2.248-.31-2.242-.473-2.242-6.415v-1.107l.937-1.05c2.35 2.903 4.876 6.092 7.607 9.168H67.683v-.596c-1.936-.137-1.987-.101-1.987-4.457v-7.294h-4.627v.596c2.003.07 2.243.176 2.243 3.633v3.037c0 4.344-.045 4.385-2.157 4.485-1.106-.104-2.213-.414-5.706-4.457-1.346-1.59-3.57-4.266-4.882-5.96l4.23-4.712c2.073-2.282 3.2-3.421 5.137-3.491v-.596h-6.642v.596c.864.172 1.192.486 1.192 1.107 0 .415-.084 1.144-1.362 2.526l-5.223 5.762v-3.719c0-5.078.236-5.4 2.242-5.676v-.596h-7.096Zm21.345.794c-.899 0-1.56.693-1.56 1.59 0 .899.661 1.59 1.56 1.59.9 0 1.59-.691 1.59-1.59 0-.897-.69-1.59-1.59-1.59Zm65.199.227c-1.865 0-3.804 1.164-3.804 3.719 0 .97.305 1.856.823 2.895-2.558.795-3.917 3.013-3.917 5.535 0 4.597 3.497 7.096 7.437 7.096 2.454 0 4.389-.778 6.188-2.3 1.104.798 2.209 1.569 2.867 1.846h4.257v-.596c-1.384-.138-3.467-1.27-5.677-2.896.794-1.312.986-3.21 1.192-4.626.175-1.21 1.062-1.18 1.647-1.25v-.538h-5.592v.539c1.314.172 2.583.344 2.583 2.384 0 1.072-.168 2.14-.653 2.867-4.907-3.836-9.423-9.148-9.423-11.808 0-1.315.793-1.93 2.072-1.93 1.59 0 3.106 1.047 3.832 3.122h.539l-.057-3.718h-.568c-.033.242-.261.397-.397.397-.691 0-1.653-.738-3.349-.738Zm-40.277 6.188c-2.557 0-4.031 1.592-4.031 3.491 0 4.149 7.096 3.312 7.096 6.699 0 1.14-1.072 1.817-2.867 1.817-1.763 0-3.264-.938-3.746-3.151h-.738c0 .9.14 2.56.312 2.838.485.795 2.462 1.22 4.087 1.22 2.937 0 4.74-1.707 4.74-3.746 0-4.563-7.039-3.844-7.039-6.784 0-1.036.932-1.56 2.072-1.56 2.315 0 3.341 2.14 3.548 2.866h.54c0-1.797-.202-2.928-.341-3.065-.139-.139-1.905-.625-3.633-.625Zm13 0c-3.596 0-6.018 2.865-6.018 6.84 0 3.11 1.59 6.103 5.876 6.103 1.761 0 3.878-.71 5.052-1.987l-.284-.596a6.958 6.958 0 0 1-3.605 1.022c-3.422 0-4.843-3.076-4.74-5.875h8.629c.138-2.834-1.352-5.507-4.91-5.507Zm66.731 0c-3.873 0-6.614 2.814-6.614 6.443 0 2.42.964 4.43 2.725 5.535 1.039.655 2.381.937 3.832.937 3.836 0 6.585-2.774 6.585-6.472 0-2.384-.962-4.373-2.725-5.478-1.036-.657-2.352-.965-3.803-.965Zm-131.305.085c-3.7 0-6.472 3.319-6.472 6.983 0 2.903 1.625 5.875 5.876 5.875 1.76 0 3.878-.71 5.052-1.987l-.284-.596a6.975 6.975 0 0 1-3.605 1.022c-3.422 0-4.712-2.89-4.712-5.932 0-1.416.342-2.442.965-3.066.586-.588 1.415-.794 2.243-.794 1.209 0 2.602.473 3.605 1.788l.227-.029c.38-.482.758-1.457.794-2.185-.864-.69-2.17-1.079-3.69-1.079Zm40.05 0c-1.591 0-3.263.758-4.542 2.384v-2.213H68.62v.596c2.003.069 2.242.176 2.242 3.633v3.037c0 4.388-.01 4.381-2.186 4.485v.596h6.585v-.596c-1.938-.137-2.015-.103-2.015-4.457v-3.349c0-1.142 1.568-2.555 3.435-2.555 1.519 0 2.725.661 2.725 3.634v2.469c0 4.115-.139 4.154-1.902 4.258v.596h6.471v-.596c-2.176-.104-2.185-.143-2.185-4.258v-2.753c0-3.733-2.033-4.91-4.002-4.91Zm107.888 0c-1.694 0-3.347 1.07-4.315 2.384v-2.213h-4.626v.596c2.007.069 2.242.176 2.242 3.633v3.52c0 3.976-.057 3.969-2.129 4.002v.596h6.529v-.596c-1.832-.173-2.016-.176-2.016-4.116v-3.577c0-1.278 1.623-2.668 3.35-2.668 1.866 0 2.668 1.04 2.668 3.492v2.497c0 4.08-.09 4.268-1.817 4.372v.596h6.131v-.596c-2.039-.173-1.987-.352-1.987-4.258v-3.463c0-1.244 1.575-2.64 3.406-2.64 1.557 0 2.555.935 2.555 3.492v2.838c0 3.733-.019 3.894-1.817 4.03v.597h6.5v-.596c-2.245-.104-2.157-.408-2.157-4.003v-3.207c0-3.423-1.853-4.712-4.03-4.712-1.968 0-3.572 1.108-4.712 2.697-.485-1.693-1.701-2.697-3.775-2.697Zm23.644 0c-1.797 0-3.256.84-4.258 2.015v-1.844h-4.513v.596c1.901.069 2.129.185 2.129 4.229v8.43c0 4.39.099 4.722-2.044 4.825v.596h6.614v-.596c-2.349-.067-2.186-.455-2.186-5.052V24.03c.933.933 2.406 1.306 3.719 1.306 3.731 0 6.074-2.795 6.074-6.528 0-3.594-2.323-6.302-5.535-6.302Zm12.063 0c-1.349 0-3.328.486-4.399 1.42.069.586.591 1.726.936 2.072l.312-.057c.552-1.348 1.496-2.328 2.981-2.328 1.626 0 2.299 1.15 2.299 2.498v1.42c0 .933-4.126 1.107-5.819 2.525-.588.518-1.022 1.174-1.022 2.072 0 1.936 1.37 3.208 3.406 3.208 1.279 0 2.38-.424 3.52-1.703.173.898.92 1.39 2.129 1.39H235.036v-.595c-1.936-.137-2.015-.103-2.015-4.457v-3.349c0-1.142 1.57-2.555 3.434-2.555 1.521 0 2.725.661 2.725 3.634v2.469c0 4.115-.141 4.154-1.902 4.258v.596h6.472v-.596c-2.179-.104-2.186-.143-2.186-4.258v-2.753c0-3.733-2.03-4.91-4.002-4.91-1.588 0-3.263.757-4.541 2.383v-2.213h-4.627v.596c2.004.069 2.242.176 2.242 3.633v3.037c0 4.388-.037 4.381-2.214 4.485h-.511c-1.728 0-1.93-.584-1.93-3.038v-4.144c0-.793-.085-1.513-.255-2.1-.588-1.936-2.166-2.64-4.343-2.64Zm-113.565.34v.597c1.416.07 1.534.269 3.435 4.485l3.235 7.152c-1.106 2.834-2.837 4.372-6.329 5.166.175.588.821 1.618 1.163 1.93 4.599-1.866 5.501-4.911 7.125-9.508l2.441-6.983c.552-1.59 1.437-2.242 2.299-2.242v-.596h-4.456v.596c1.073.07 1.636.664 1.22 1.873l-2.384 7.011-2.299-5.421c-.62-1.485-.852-2.065-.852-2.583 0-.485.267-.774 1.164-.88v-.596h-5.762Zm135.052 0v.597c1.416.07 1.562.269 3.463 4.485l3.207 7.152c-1.107 2.834-2.838 4.372-6.33 5.166.174.588.82 1.618 1.164 1.93 4.598-1.866 5.501-4.911 7.125-9.508l2.469-6.983c.552-1.59 1.408-2.242 2.271-2.242v-.596h-4.456v.596c1.072.07 1.664.664 1.248 1.873l-2.384 7.011-2.327-5.421c-.623-1.485-.852-2.065-.852-2.583 0-.485.267-.774 1.164-.88v-.596h-5.762Zm-141.041.597c1.934 0 3.117 1.267 3.151 3.548h-6.358c.206-2.281 1.237-3.548 3.207-3.548Zm66.873 0c2.212 0 4.4 2.14 4.4 6.216 0 2.87-1.267 4.627-3.861 4.627-2.245 0-4.342-2.062-4.342-6.245 0-2.972 1.415-4.598 3.803-4.598Zm-41.639.312c1.729 3.076 4.957 6.34 8.344 8.828-1.038.796-2.785 1.022-4.2 1.022-3.63 0-6.5-2.567-6.5-5.99 0-2.142.937-3.48 2.356-3.86Zm81.15.312c2.554 0 4.144 1.908 4.144 5.053 0 3.214-1.339 5.28-3.86 5.28-1.625 0-3.435-.92-3.435-2.13v-6.13c0-1.037 1.492-2.073 3.151-2.073Zm15.299 4.627V22.1c0 1.037-1.364 1.873-2.47 1.873-1.036 0-1.901-.653-1.901-2.072 0-2.521 2.61-2.24 4.371-3.207Z"></path></g><defs><clipPath id="mckinsey_svg__a"><path fill="#fff" d="M.727.65h261.588v32.7H.727z"></path></clipPath></defs></svg>