<svg xmlns:xlink="http://www.w3.org/1999/xlink" xmlns="http://www.w3.org/2000/svg" width="117" height="28" fill="none"><g fill="#FFFFFF" clip-path="url(#protocol-logo_svg__a)"><path d="M6.867 7.837c.572-.394 1.073-.804 1.633-1.11a5.422 5.422 0 0 1 3.087-.654c1.944.171 3.565 1.024 4.85 2.513.739.856 1.231 1.844 1.587 2.898.148.437.143.927.213 1.39.101.672.08 1.333.028 2.018-.123 1.59-.716 2.945-1.664 4.193-.749.988-1.707 1.684-2.815 2.194a6.019 6.019 0 0 1-3.518.484c-1.077-.174-2.114-.563-2.912-1.388-.087-.09-.216-.138-.326-.206-.03.123-.086.246-.088.37-.009.855.008 1.71-.013 2.564-.009.378.14.492.497.48.536-.02 1.074.002 1.612-.007.362-.006.535.126.528.516a97.599 97.599 0 0 0-.002 2.93c.006.422-.165.58-.592.578-2.796-.012-5.593-.005-8.388-.006-.54 0-.576-.04-.578-.59-.001-.989.008-1.978-.004-2.966-.004-.333.129-.466.454-.457.415.01.833-.022 1.245.011.324.027.403-.1.401-.391-.008-1.184-.003-2.369-.003-3.553 0-2.966 0-5.934.01-8.901 0-.286-.117-.364-.37-.36-.427.008-.855.005-1.283.004-.294 0-.451-.132-.45-.444.006-1.05.008-2.1 0-3.15-.001-.29.137-.386.405-.386 2.015.003 4.03.002 6.045-.001.29 0 .428.119.417.418-.011.338-.003.677-.003 1.01h-.003ZM10.2 17.24c2.024.063 3.244-1.58 3.29-3.19.056-1.92-1.474-3.437-3.221-3.44-1.79-.005-3.254 1.327-3.272 3.351-.017 1.948 1.538 3.355 3.204 3.279H10.2ZM39.646 21.83c-3.165-.05-5.451-1.127-7.091-3.37-.537-.733-.831-1.661-1.145-2.533a4.917 4.917 0 0 1-.29-1.708c.013-.963.107-1.92.436-2.852.439-1.236 1.119-2.295 2.085-3.163a7.837 7.837 0 0 1 2.705-1.605c1.022-.353 2.066-.588 3.125-.53 2.854.155 5.207 1.296 6.778 3.77.473.744.75 1.575.97 2.45.204.809.212 1.602.15 2.387a7.4 7.4 0 0 1-1.315 3.682c-.58.834-1.271 1.548-2.114 2.089a8.88 8.88 0 0 1-1.83.88c-.914.323-1.855.581-2.464.504v-.002Zm2.81-7.983a3.166 3.166 0 0 0-3.432-3.233 3.293 3.293 0 0 0-3.01 3.55c.09 1.574 1.322 3.14 3.378 3.09 1.687-.042 3.214-1.518 3.062-3.407h.001ZM99.965 21.816c-2.598.007-4.575-.78-6.193-2.348-.984-.954-1.741-2.103-1.983-3.503-.134-.773-.332-1.56-.289-2.328.048-.87.246-1.757.538-2.58.358-1.012.98-1.895 1.76-2.655.943-.92 2.048-1.58 3.3-1.936 1.149-.327 2.312-.5 3.547-.313.958.147 1.873.364 2.726.783 1.631.799 2.851 2.005 3.657 3.672.678 1.402.884 2.868.7 4.354-.214 1.733-.948 3.28-2.225 4.52a7.902 7.902 0 0 1-3.295 1.928c-.844.253-1.682.451-2.245.406h.002Zm2.878-7.875c.078-2.082-1.603-3.254-2.975-3.33-2.068-.116-3.373 1.582-3.477 3.023-.16 2.196 1.543 3.638 3.295 3.63 1.558-.006 3.283-1.367 3.157-3.322v-.001ZM74.245 13.944c.052 1.775-.528 3.346-1.575 4.72-1.014 1.333-2.353 2.237-3.982 2.746-1.044.325-2.086.42-3.157.388-1.146-.033-2.224-.365-3.236-.861-1.444-.71-2.59-1.771-3.366-3.193-.526-.964-.922-1.973-.873-3.109.03-.672-.059-1.355.016-2.02.113-1.01.517-1.934 1.05-2.802.905-1.48 2.2-2.502 3.797-3.114.666-.255 1.41-.296 2.095-.512.93-.293 1.864-.133 2.743.054.94.2 1.87.592 2.716 1.06a6.805 6.805 0 0 1 3.153 3.651c.182.482.346.98.45 1.482.103.494.117 1.007.172 1.511l-.003-.001Zm-8.132 3.294c1.685.127 3.258-1.443 3.216-3.31-.047-2.009-1.45-3.274-3.131-3.312-2.008-.045-3.266 1.507-3.364 3.136-.123 2.025 1.555 3.624 3.279 3.486ZM86.212 7.895c0-.406.003-.732 0-1.059-.003-.281.113-.432.412-.432 1.196.004 2.393.006 3.59 0 .287 0 .386.138.385.406-.005 1.88-.006 3.761-.002 5.64 0 .333-.128.484-.48.48a201.04 201.04 0 0 0-3.517-.004c-.301.002-.492-.089-.617-.394-.282-.695-.73-1.252-1.424-1.599-1.708-.857-3.818.018-4.406 1.842a3.926 3.926 0 0 0-.138 1.901c.155.871.608 1.644 1.4 2.139 1.715 1.071 3.77.434 4.58-1.423.066-.15.312-.31.478-.313 1.233-.024 2.465-.005 3.7-.014.316-.002.448.119.426.434-.066.98-.43 1.866-.909 2.702a6.699 6.699 0 0 1-3.18 2.859c-.928.407-1.896.753-2.927.727-.894-.022-1.815-.02-2.675-.228-1.242-.3-2.382-.869-3.335-1.779-.797-.76-1.464-1.606-1.87-2.627-.221-.555-.36-1.152-.476-1.74-.113-.578-.247-1.18-.2-1.757.117-1.47.399-2.925 1.305-4.139.555-.744 1.17-1.479 1.885-2.06.584-.473 1.34-.767 2.058-1.037.555-.208 1.176-.37 1.761-.349 1.413.053 2.606.164 4.173 1.82l.003.004ZM25.892 10.885v.617c0 1.917.003 3.834-.01 5.751-.001.29.116.362.366.358.574-.01 1.148 0 1.721-.02.355-.013.512.116.507.487-.014.977-.01 1.954-.004 2.932.003.417-.182.589-.6.589-2.773-.007-5.546-.003-8.317-.004-.594 0-.675-.087-.676-.68v-2.712c0-.567.022-.588.605-.59.392-.004.781-.008 1.173 0 .273.005.393-.096.391-.388a860.698 860.698 0 0 1 0-6.447c0-.295-.121-.392-.391-.389-.415.006-.831 0-1.246.005-.36.003-.54-.153-.538-.53.007-1 .009-2.003 0-3.004-.003-.336.154-.452.47-.45 1.991.004 3.981.006 5.972 0 .325 0 .476.123.451.457-.014.2-.003.405-.003.752.74-1.093 1.702-1.564 2.854-1.548.79.012 1.519.308 2.1.884 1.1 1.09 1.13 2.876.256 3.931-.418.506-.91.893-1.578 1.053-.631.15-1.273.189-1.854-.053-.577-.242-1.084-.647-1.653-1l.004-.001ZM114.912 9.044c0 2.733.003 5.468-.006 8.202 0 .281.11.368.366.363.403-.007.806.013 1.208-.004.371-.016.528.119.519.508-.019.928-.005 1.856-.006 2.784 0 .517-.098.616-.627.617-2.198.003-4.395 0-6.593.001h-1.354c-.361 0-.535-.167-.531-.539.009-.976.01-1.954.001-2.93-.003-.316.141-.442.442-.44.414.005.831-.017 1.244.005.378.019.513-.116.513-.506-.012-3.894-.004-7.789-.01-11.683-.003-1.243.196-1.115-1.136-1.12-1.129-.003-1.129 0-1.129-1.139 0-.77.008-1.539-.004-2.307-.006-.33.126-.458.454-.458 2.051.007 4.101.008 6.153 0 .377-.002.478.165.477.514-.009 2.71-.005 5.42-.005 8.13h.024v.002ZM49.555 14.552c0-1.246-.007-2.49.005-3.736.003-.312-.097-.446-.42-.43-.366.02-.734-.004-1.1.002-.28.006-.396-.123-.394-.399.004-1.063.005-2.124-.003-3.186-.003-.285.121-.4.394-.398.366.005.733-.013 1.1.006.32.016.427-.117.424-.43-.01-1.293.008-2.588-.01-3.882-.006-.4.138-.54.533-.533 1.221.016 2.442.004 3.663.006.543 0 .591.043.593.578.002 1.246.017 2.492-.008 3.737-.009.428.138.545.548.532.817-.028 1.636 0 2.454-.01.324-.005.464.11.46.448a113.887 113.887 0 0 0 0 3.003c.006.403-.18.538-.558.532-.83-.012-1.661.006-2.49-.006-.301-.004-.41.112-.41.41.008 2.013.008 4.029 0 6.042-.002.33.135.421.44.412.598-.016 1.196.006 1.794-.009.304-.007.459.096.459.414a725.426 725.426 0 0 0 0 3.553c0 .26-.125.38-.38.38-1.196-.002-2.399.07-3.586-.032-.827-.07-1.702-.18-2.369-.812-.49-.464-.892-1-.948-1.675-.125-1.5-.183-3.008-.27-4.511.028 0 .056-.003.084-.005l-.005-.001Z" fill="#FFFFFF"></path></g><defs><clipPath id="protocol-logo_svg__a"><path fill="#fff" d="M-.002.399H117v27.202H-.002z"></path></clipPath></defs></svg>