<svg xmlns:xlink="http://www.w3.org/1999/xlink" xmlns="http://www.w3.org/2000/svg" width="111" height="44" fill="none"><g clip-path="url(#stanford_svg__a)" fill="none"><path fill="#FFFFFF" d="M53.81 21.102c-2.747 0-2.972-2.09-2.972-2.712 0-.725.173-2.09 1.952-2.746 1.796-.657 2.176-.726 3.455-1.14v-.311c0-.622 0-.726-.139-1.14-.224-.708-.915-1.192-1.882-1.192-.916 0-1.693.518-2.056 1.278l-.518-.31c.311-1.14 1.486-2.263 3.49-2.263 1.38 0 2.348.397 2.918 1.278.432.708.484 1.658.484 2.625 0 .881-.052 1.848-.052 2.626 0 .518-.052 1.019-.052 1.295 0 .708.138 1.278.708 1.278.26 0 .311-.086.518-.224l.311.397c-.518.708-1.14 1.278-2.141 1.278-.778 0-1.348-.397-1.59-1.036-.345.449-1.174 1.019-2.435 1.019Zm2.417-5.355c-1.347.398-1.848.622-2.228.83-.622.31-.88.88-.88 1.606 0 .57.224 1.485 1.537 1.485.431 0 1.036-.086 1.606-.483V15.73l-.035.017Zm-22.73 4.802c0-1.019 0-1.883-.087-2.919h.622c0 .656.173 1.14.484 1.434.431.483 1.433.777 2.349.777 1.917 0 2.832-.726 2.832-2.315 0-1.347-.829-1.917-1.951-2.711l-.173-.138-1.227-.83c-1.692-1.14-2.573-2.003-2.573-3.8 0-.88.345-3.765 4.577-3.765 1.088 0 2.487.138 3.316.26 0 .137-.051.776-.051 1.346 0 .657 0 .83.051 1.607h-.518c0-.709-.224-1.14-.518-1.434-.397-.397-1.295-.622-2.263-.622-2.262 0-2.521 1.14-2.521 2.004 0 1.192.621 1.606 1.951 2.487l1.538 1.02c1.295.88 2.521 1.692 2.521 3.886 0 3.661-3.454 4.059-4.888 4.059-1.33.207-2.435 0-3.472-.346Zm27.411-9.327c.518.052 1.296 0 2.056-.138.656-.138.88-.225 1.347-.432l.224.138v.777c.519-.397 1.538-.967 2.971-.967 1.849 0 3.023.881 3.351 2.401.087.397.138 1.296.138 1.848v2.971c0 1.658.087 2.142.398 2.453.172.138.518.31 1.019.31v.484a40.538 40.538 0 0 0-2.522-.086c-.915 0-1.952.052-2.522.086v-.483c.518-.052.83-.225 1.02-.346.31-.31.345-.88.396-2.142 0-.397.052-1.191.052-1.744 0-.726 0-1.537-.086-2.315-.138-1.295-.83-1.917-2.142-1.917-.915 0-1.485.225-1.917.432v5.32c0 1.658.086 2.142.397 2.453.173.138.57.31.967.31v.484a45.555 45.555 0 0 0-2.487-.086c-1.347 0-1.796.052-2.573.086v-.5c.431 0 .88-.174 1.088-.433.31-.345.345-1.226.345-2.919v-3.04c0-1.278-.052-1.796-.224-2.055-.139-.225-.484-.397-1.192-.397v-.57h-.087v.017h-.017Zm12.626 9.31c.432 0 .881-.138 1.089-.432.31-.345.345-1.226.345-2.919v-5.078h-1.295v-.57c.57-.225 1.036-.484 1.295-.708 0-.916.052-2.056.173-2.712.397-2.09 1.744-3.144 4.059-3.144 1.019 0 1.952.346 2.573.83l.052.224-1.019 1.382h-.259c-.345-.83-.88-1.296-1.796-1.296-.311 0-.726.087-1.02.346-.431.431-.517 1.088-.517 2.4v1.952h2.262v1.279h-2.245v5.63c0 1.348.052 2.004.224 2.263.26.432 1.192.484 1.607.484v.518a45.623 45.623 0 0 0-2.747-.086c-1.278 0-2.09.051-2.746.086l-.035-.45Zm11.694.639c-3.092 0-4.923-1.917-4.923-5.147 0-2.522 1.348-5.458 5.148-5.458 3.091 0 4.922 1.917 4.922 5.147 0 2.522-1.364 5.458-5.147 5.458Zm.138-9.43c-.622 0-1.088.172-1.433.483-.83.708-1.227 1.917-1.227 3.713 0 .708.138 4.111 2.626 4.111.622 0 1.088-.172 1.433-.483.83-.709 1.227-1.918 1.227-3.714-.018-.708-.139-4.11-2.626-4.11Zm6.046-.57c.708.05 1.433-.053 2.228-.174.622-.086 1.019-.224 1.226-.345l.173.086v.881a3.3 3.3 0 0 1 2.349-.967c.777 0 1.295.225 1.796.622v.31l-.88 1.59h-.432c-.26-.484-.778-.916-1.693-.916-.432 0-.777.087-1.088.311v5.2c0 1.347.052 1.951.224 2.227.26.432 1.14.484 1.607.432v.57a45.25 45.25 0 0 0-2.747-.086c-.967 0-1.952 0-2.746.086v-.518c.57-.052.88-.173 1.088-.432.311-.345.346-1.192.346-2.919v-2.85c0-1.278 0-1.796-.225-2.055-.173-.225-.518-.346-1.192-.346v-.656l-.034-.052Zm14.284-5.58c.622 0 1.382-.138 2.401-.31.57-.087.915-.225 1.088-.26l.173.086c-.086.83-.086 2.712-.086 4.06v8.29c0 1.227 0 2.004.172 2.263.173.225.518.397 1.192.397v.518c-.656 0-1.382.087-2.176.225-.518.086-.916.173-1.14.26l-.259-.087v-.881a4.645 4.645 0 0 1-2.833.967c-2.798 0-4.577-1.917-4.577-4.923 0-1.019.172-1.917.518-2.746.881-1.848 2.625-2.884 4.836-2.884.829 0 1.537.086 1.952.172V8.562c0-1.278 0-1.917-.225-2.228-.138-.225-.345-.311-1.088-.346v-.414l.052.017Zm-.345 14.095c.708 0 1.191-.087 1.658-.398v-6.805c-.173-.173-.777-.708-2.004-.708-1.952 0-2.919 1.347-2.919 4.162-.052 1.175.294 3.749 3.265 3.749Zm-55.532.31c-.31.398-1.088 1.192-2.746 1.192-1.59 0-2.453-.57-2.833-1.848-.173-.484-.173-1.485-.173-2.055 0-1.607 0-2.92.052-4.457v-.708h-1.364v-.397c.518-.225.915-.432 1.278-.708.777-.622 1.295-1.348 1.883-2.453h.431v2.263h3.455v1.278h-3.455v5.32c0 1.606.311 2.487 1.797 2.487.708 0 1.192-.224 1.433-.397l.242.483ZM89.995 29.202c-.173 0-.397.052-.518.173-.138.086-.138.224-.138.31 0 .174.051.312.172.657l.968 2.522c.138.397.259.708.31.915l1.192-3.454c.139-.397.173-.484.173-.656 0-.087-.052-.173-.138-.26a.976.976 0 0 0-.518-.172v-.398c.138 0 .431 0 .57.052.138 0 .397.052.621.052.432 0 1.037-.052 1.296-.052v.398c-.173.051-.57-.052-.915.967l-2.488 6.633c-.345.967-.829 2.141-2.522 2.141-.708 0-1.191-.172-1.589-.518v-.173l.622-.725h.173c.173.397.518.57 1.019.57.777 0 1.14-.708 1.658-2.09l.138-.397-2.09-5.441c0-.052-.052-.138-.086-.225a7.703 7.703 0 0 0-.173-.397c-.138-.26-.345-.346-.622-.346v-.397c.398.052 1.089.052 1.434.052.225 0 .57 0 .916-.052.172 0 .483-.052.621-.052v.346h-.069v.017h-.017Zm-23.11-.086c.431.052.915-.052 1.381-.138.397-.087.622-.139.777-.225l.138.052v.57c.311-.311.778-.622 1.486-.622.518 0 .829.138 1.14.397v.225l-.518 1.019h-.26c-.172-.31-.483-.57-1.088-.57-.259 0-.483.086-.708.224v3.282c0 .881.052 1.279.138 1.434.173.259.709.31 1.02.31v.346c-.432-.052-1.227-.052-1.745-.052-.622 0-1.278 0-1.745.087v-.346c.346 0 .57-.138.709-.259.224-.224.224-.725.224-1.882v-1.849c0-.777 0-1.14-.138-1.295-.086-.138-.345-.225-.725-.225v-.483H66.884Zm-29.07 6.322c-1.849 0-2.92-.57-3.317-1.797-.224-.622-.224-1.382-.224-2.003v-3.49c0-1.036-.052-1.226-.26-1.381-.086-.087-.31-.173-.621-.225v-.345c.431.052 1.191.086 1.606.086.725 0 1.192 0 1.658-.086v.397c-.31 0-.518.086-.708.26-.225.224-.225.62-.225 1.744v3.091c0 1.849.173 3.023 2.229 3.023 2.09 0 2.228-1.226 2.228-3.092v-3.402c0-1.037-.052-1.227-.26-1.382a1.815 1.815 0 0 0-.621-.225v-.345c.397 0 .915.052 1.433.052.484 0 .968 0 1.538-.087v.397c-.311 0-.519.087-.709.26-.224.224-.224.621-.224 1.744v2.626c0 .829 0 1.744-.26 2.487-.38 1.14-1.433 1.693-3.264 1.693Zm12.453-.398c.345-.051.57-.086.725-.259.225-.224.225-.725.225-1.883V31.05c0-.777 0-1.192-.138-1.347-.087-.138-.26-.224-.726-.259v-.397c.26.052.968-.052 1.486-.139.259-.051.518-.138.708-.224l.138.138c-.052.432-.052 1.347-.052 2.574v1.883c0 .88.052 1.278.139 1.433.138.173.397.311.777.311v.31c-.346-.05-1.02-.05-1.59-.05-.656 0-1.347.05-1.692.085v-.328Zm1.606-7.462c-.518 0-.829-.31-.829-.777 0-.466.346-.829.881-.829.518 0 .83.311.83.777-.018.519-.364.83-.882.83Zm25.978 7.462c.346-.051.57-.086.726-.259.224-.224.224-.725.224-1.883V31.05c0-.777 0-1.192-.138-1.347-.086-.138-.259-.224-.725-.259v-.397c.259.052.967-.052 1.485-.139.26-.051.57-.138.708-.224l.138.138c-.051.432-.051 1.347-.051 2.574v1.883c0 .88.052 1.278.138 1.433.138.173.397.311.777.311v.31c-.397-.05-1.036-.05-1.606-.05-.657 0-1.348.05-1.693.085v-.345h.017v.017Zm1.607-7.462c-.519 0-.83-.31-.83-.777 0-.466.346-.829.881-.829.519 0 .83.311.83.777 0 .519-.363.83-.881.83Zm-6.892 7.549c0-.657-.052-1.348-.086-1.693h.431c0 .345.087.656.26.829.258.31.57.432 1.14.432h.086c.708 0 1.088-.311 1.088-.916 0-.483-.31-.708-.83-1.019l-.915-.57c-.483-.31-1.036-.725-1.036-1.658 0-.725.311-1.295.916-1.606.397-.225 1.019-.225 1.295-.225.518 0 1.278.087 1.693.173-.052.173-.052.622-.052.777 0 .138 0 .726.052.881h-.432c0-.259-.087-.518-.26-.725-.172-.225-.57-.346-1.036-.346-.656 0-1.019.26-1.019.83 0 .431.346.656.657.88h.051l.881.518c.57.346 1.296.778 1.296 1.797 0 1.693-1.59 1.952-2.487 1.952-.519-.052-1.071-.087-1.693-.311Zm13.697-.415c-.224.225-.708.726-1.745.726-1.019 0-1.589-.346-1.796-1.192-.086-.311-.086-.968-.086-1.296v-3.264h-.881v-.26c.345-.137.57-.258.829-.431.484-.397.83-.881 1.226-1.59h.311v1.434H86.3v.778h-2.177v3.437c0 1.019.173 1.606 1.14 1.606.432 0 .726-.138.916-.259l.086.311Zm-29.519-5.855c-.138 0-.432 0-.622.052-.345 0-.708.051-.967.051-.483 0-1.192-.052-1.382-.052v.398c.087 0 .432-.052.657.397.086.173.138.311.172.397a.53.53 0 0 1 .087.225l2.09 5.234.656-.139 2.315-5.147c0-.052.051-.086.086-.173.052-.052.052-.138.224-.397a.784.784 0 0 1 .657-.397v-.398c-.26 0-.83.052-1.278.052-.225 0-.432 0-.657-.052-.172 0-.431-.051-.622-.051v.345c.225 0 .432.086.519.173.051.052.138.173.138.259 0 .138-.052.26-.173.656l-1.278 3.092a19.872 19.872 0 0 0-.26-.777l-.88-2.315c-.138-.345-.173-.483-.173-.656 0-.086 0-.173.087-.225a.81.81 0 0 1 .57-.224v-.346.018h.034Zm-14.25.259c.346.052.83 0 1.296-.087.397-.086.57-.138.88-.259l.139.087v.518c.31-.26 1.019-.622 1.883-.622 1.191 0 1.917.57 2.141 1.537.052.26.087.83.087 1.192v1.883c0 1.036.051 1.347.259 1.589.086.086.345.173.622.173v.31c-.432 0-1.192-.051-1.607-.051-.622 0-1.278.052-1.606.086v-.345a1.78 1.78 0 0 0 .656-.225c.173-.173.225-.57.26-1.347v-1.14c0-.484 0-1.02-.053-1.486-.086-.829-.518-1.226-1.347-1.226-.57 0-.967.138-1.226.26v3.42c0 1.035.052 1.346.259 1.588.086.087.345.173.622.173v.31c-.57-.137-1.227-.137-1.658-.137-.881 0-1.14 0-1.607.086v-.31c.26 0 .57-.087.708-.26.173-.224.225-.777.225-1.883v-1.848c0-.777 0-1.14-.138-1.295-.087-.138-.311-.26-.726-.225V29.1l-.069.017Zm21.211 6.322c-1.952 0-3.023-1.14-3.023-3.196 0-.345.087-3.54 3.058-3.54.88 0 1.658.345 2.003.966.397.622.432 1.227.432 1.745v.397h-4.059c0 .346.052.622.086.83.225 1.278.916 1.882 2.142 1.882.708 0 1.14-.138 1.537-.397l.173.31c-.432.588-1.295 1.003-2.349 1.003Zm-1.572-4.353h2.522c0-.777-.138-1.658-1.278-1.658-.985.052-1.192.984-1.244 1.658ZM6.513.755.537 6.593v15.7l5.182 5.303h2.384c-.052.156-.139.398.034.64.173.259.484.259.605.259.138 0 .328-.018.639-.052 0 0 .12.104-.26.242-.31.103-.587.293-.673.604 0 .017 0 .052-.017.07H.537v8.031l5.976 5.873h15.701l5.977-5.856V22.346l-5.182-5.286h-4.405c-.19-.12-.397-.242-.57-.362l-.069-.035h-.017c-.104-.07-.207-.138-.311-.242-.104-.086-.173-.155-.242-.224l-.017-.018a2.415 2.415 0 0 1-.294-.345c.691.19 1.434.242 1.797.259h.138c.086 0 .155.017.19.035.052.017.086.034.12.051l.19.07a.38.38 0 0 0 .139.017.697.697 0 0 0 .639-.415c.034-.086.104-.259.052-.484h7.842V6.61L22.197.755H6.513Z"></path><path fill="#000" d="M27.464 6.92 21.92 1.48H6.788L1.244 6.904V22l4.767 4.87h3.075c-.346.312-.45.64-.501.795-.12.346-.242.45.83.294.345-.052.966-.276 1.26-.466.294-.19.846-.035.812.38-.26.656-.95 1.053-1.607 1.14-1.502.19-.846.742-.846.742.173.121.276.225.363.328H1.244v6.996l5.545 5.44h15.13l5.545-5.44V22.656l-4.767-4.853h-3.852c-.311-.208-.726-.432-1.105-.674a2.363 2.363 0 0 1-.415-.31c-.121-.087-.207-.19-.294-.277-.328-.346-.587-.709-.656-.881-.121-.311-.104-.691.19-.536.708.415 1.883.484 2.314.501.052 0 .398.035.484.07.087.034.225.103.225.103.172.07.5-.173.12-.622a4.508 4.508 0 0 0-.414-.518h8.187l-.017-7.738Z"></path><path fill="#FFFFFF" d="M7.083 2.207 1.971 7.216V21.69l4.352 4.456h4.094c.69-.31.846-.276 1.036-.673.035-.07.052-.242.07-.415.017-.052.103-.57-.156-.449-.432.225-1.313-.363-1.986-.017-.657.345-.173-.45-.087-.587 0 0 .346-.467.881-.778.018-.017.035-.017.052-.034.052-.035.104-.052.155-.087.398-.19 1.555-.967 1.762-1.191.121-.139.346-.467.346-.64.034-.155.069-.397-.087-.483-.224-.138-.397.138-.742.293-.346.156-.605.225-.916.225-.293.017-.587-.104-.76-.069-.173.035-.276-.104.052-.432.155-.155.207-.207.276-.259.778-.5 1.469-.5 1.849-1.382 0 0 .293-.794-.277-.449-.31.19-.5.45-1.399.45-.915 0-1.26.431-1.416.621 0 0-.622.864-.467-.345.156-1.21.398-1.831.968-2.298.5-.397 1.71-.95 2.159-1.554.224-.225.794-.881.466-1.416-.138-.225-.483.362-.829.449-.397.103-.915.241-1.295.155-.484-.104-.795.086-.968.173-.172.086-.518-.173-.103-.657.552-.639 1.9-1.468 2.798-1.951.12-.052.432-.19.708-.363h.017c.07-.035.173-.087.225-.173.19-.173.328-.345.293-.535-.034-.173-.12-.225-.397-.26-.207-.017-.57.225-.863.208-.45-.035-1.123.069-.899-.26.208-.293.536-.483.64-.535.19-.086.431-.19.794-.362.57-.26.5-.916.276-.933-.345-.035-1.278.259-.621-.484 0 0 .31-.31.621-.518.242-.138.45-.207.709-.294.155-.051.552-.414-.398-.449 0 0-.535.018-.431-.224.086-.156.552-.467.552-.467s.38-.259.536-.414c.155-.138.259-.26.242-.38 0-.138-.38-.328-.536-.536-.12-.138-.017-.19.052-.207.034 0 .069-.017.12-.017.38 0 .502-.38.726-1.4.07-.293.07-.362.173-.362h.017s.104.518.242 1.088c.12.311.242.45.484.45.051 0 .086 0 .12.017.07.017.156.069.052.207-.086.12-.345.294-.362.397-.07.311.224.432.535.45.432.034.26.293-.207.638-.45.329.708 1.054.708 1.054.656.5.19.639.052.708-.138.07-.501.294-.138.432.38.138.88.656.88.656.657.76-.276.45-.621.484-.225.017-.311.674.276.933.881.397 1.071.466 1.382.69.587.432.276.795-.45.674 0 0-.466-.12-.794-.052a1.254 1.254 0 0 0-.432.139c-.051.069-.172.38.847.69.483.156 1.07.519 1.606.933h8.256V7.267l-5.164-5.06H7.083Zm12.471 16.305c.242.397.38.915.484 1.658 0 .45-.605.242-.795.121a2.1 2.1 0 0 0-.552-.242c-.432-.104-1.486-.57-1.762-.656a.437.437 0 0 0-.536.19c-.069.138.087.414.087.414.414.933 1.157.881 1.986 1.468 1.14.812.535.985.294.864-.225-.12-.622-.052-.622-.052-.916.26-1.192-.138-1.727-.276-.536-.138-.104.518.103.743.207.241 1.365 1.019 1.762 1.192.881.414 1.33 1.07 1.606 1.917.26.794-.017.622-.224.518-.207-.104-.277-.311-.795-.294-.518.018-.811-.034-1.191-.31-.104-.07-.173-.156-.242-.242h-.018c-.362-.277-.293.639-.207.777.26.518.432.31 1.917 1.105.709.38.864.881.95 1.088.121.346.242.45-.829.294-.345-.052-.967-.259-1.26-.466-.277-.19-.847-.035-.795.38.259.656.95 1.053 1.606 1.14.57.069.83.19.933.328.31.363-.26.88-.26.88-.293.329.018.726.243.847.345.173 1.019.588 1.243 1.158 1.175 3.005.035 2.141-.518 1.796-.553-.346-1.606-1.227-2.573-1.157-.968.069-1.279.12-1.866-.329-.57-.449-.518.277-.518.277v3.627c.034.812.19 1.59.829 2.245.535.536.933.45 1.675 1.348.346.414 1.469.863 2.211.88h1.434l5.113-5.026V22.9l-4.353-4.439-2.833.052ZM1.971 30.81v5.96l5.112 5.025h1.641c1.555-.069 2.125-1.278 2.591-2.02.346-.553.985-1.037 1.382-1.434.415-.432.5-1.4.5-2.453v-2.194.018-1.9c0-.225-.258-.242-.81.363-.554.604-1.504.552-2.04.604-.535.052-2.106.864-2.538 1.451-.277.363-.674.07-.501-.656.069-.328.207-.76.432-1.33.31-.795 1.468-1.261 1.468-1.261s.12-.052.224-.156l-7.461-.017Z"></path></g><defs><clipPath id="stanford_svg__a"><path fill="#fff" d="M.537.755h110.096v42.49H.537z"></path></clipPath></defs></svg>